<?xml version="1.0" encoding="utf-8" standalone="no"?>
<!DOCTYPE svg PUBLIC "-//W3C//DTD SVG 1.1//EN"
  "http://www.w3.org/Graphics/SVG/1.1/DTD/svg11.dtd">
<!-- Created with matplotlib (https://matplotlib.org/) -->
<svg height="432pt" version="1.1" viewBox="0 0 720 432" width="720pt" xmlns="http://www.w3.org/2000/svg" xmlns:xlink="http://www.w3.org/1999/xlink">
 <defs>
  <style type="text/css">
*{stroke-linecap:butt;stroke-linejoin:round;}
  </style>
 </defs>
 <g id="figure_1">
  <g id="patch_1">
   <path d="M 0 432 
L 720 432 
L 720 0 
L 0 0 
z
" style="fill:#ffffff;"/>
  </g>
  <g id="axes_1">
   <g id="patch_2">
    <path d="M 103.986 351.44 
L 700.56 351.44 
L 700.56 19.44 
L 103.986 19.44 
z
" style="fill:#ffffff;"/>
   </g>
   <g id="matplotlib.axis_1">
    <g id="xtick_1">
     <g id="line2d_1">
      <defs>
       <path d="M 0 0 
L 0 -8 
" id="m70679ae1e2" style="stroke:#555555;stroke-width:0.8;"/>
      </defs>
      <g>
       <use style="fill:#555555;stroke:#555555;stroke-width:0.8;" x="131.103" xlink:href="#m70679ae1e2" y="351.44"/>
      </g>
     </g>
     <g id="text_1">
      <!-- 100 -->
      <defs>
       <path d="M 12.40625 8.296875 
L 28.515625 8.296875 
L 28.515625 63.921875 
L 10.984375 60.40625 
L 10.984375 69.390625 
L 28.421875 72.90625 
L 38.28125 72.90625 
L 38.28125 8.296875 
L 54.390625 8.296875 
L 54.390625 0 
L 12.40625 0 
z
" id="DejaVuSans-49"/>
       <path d="M 31.78125 66.40625 
Q 24.171875 66.40625 20.328125 58.90625 
Q 16.5 51.421875 16.5 36.375 
Q 16.5 21.390625 20.328125 13.890625 
Q 24.171875 6.390625 31.78125 6.390625 
Q 39.453125 6.390625 43.28125 13.890625 
Q 47.125 21.390625 47.125 36.375 
Q 47.125 51.421875 43.28125 58.90625 
Q 39.453125 66.40625 31.78125 66.40625 
z
M 31.78125 74.21875 
Q 44.046875 74.21875 50.515625 64.515625 
Q 56.984375 54.828125 56.984375 36.375 
Q 56.984375 17.96875 50.515625 8.265625 
Q 44.046875 -1.421875 31.78125 -1.421875 
Q 19.53125 -1.421875 13.0625 8.265625 
Q 6.59375 17.96875 6.59375 36.375 
Q 6.59375 54.828125 13.0625 64.515625 
Q 19.53125 74.21875 31.78125 74.21875 
z
" id="DejaVuSans-48"/>
      </defs>
      <g style="fill:#555555;" transform="translate(108.198 375.67625)scale(0.24 -0.24)">
       <use xlink:href="#DejaVuSans-49"/>
       <use x="63.623047" xlink:href="#DejaVuSans-48"/>
       <use x="127.246094" xlink:href="#DejaVuSans-48"/>
      </g>
     </g>
    </g>
    <g id="xtick_2">
     <g id="line2d_2">
      <g>
       <use style="fill:#555555;stroke:#555555;stroke-width:0.8;" x="239.571" xlink:href="#m70679ae1e2" y="351.44"/>
      </g>
     </g>
     <g id="text_2">
      <!-- 200 -->
      <defs>
       <path d="M 19.1875 8.296875 
L 53.609375 8.296875 
L 53.609375 0 
L 7.328125 0 
L 7.328125 8.296875 
Q 12.9375 14.109375 22.625 23.890625 
Q 32.328125 33.6875 34.8125 36.53125 
Q 39.546875 41.84375 41.421875 45.53125 
Q 43.3125 49.21875 43.3125 52.78125 
Q 43.3125 58.59375 39.234375 62.25 
Q 35.15625 65.921875 28.609375 65.921875 
Q 23.96875 65.921875 18.8125 64.3125 
Q 13.671875 62.703125 7.8125 59.421875 
L 7.8125 69.390625 
Q 13.765625 71.78125 18.9375 73 
Q 24.125 74.21875 28.421875 74.21875 
Q 39.75 74.21875 46.484375 68.546875 
Q 53.21875 62.890625 53.21875 53.421875 
Q 53.21875 48.921875 51.53125 44.890625 
Q 49.859375 40.875 45.40625 35.40625 
Q 44.1875 33.984375 37.640625 27.21875 
Q 31.109375 20.453125 19.1875 8.296875 
z
" id="DejaVuSans-50"/>
      </defs>
      <g style="fill:#555555;" transform="translate(216.666 375.67625)scale(0.24 -0.24)">
       <use xlink:href="#DejaVuSans-50"/>
       <use x="63.623047" xlink:href="#DejaVuSans-48"/>
       <use x="127.246094" xlink:href="#DejaVuSans-48"/>
      </g>
     </g>
    </g>
    <g id="xtick_3">
     <g id="line2d_3">
      <g>
       <use style="fill:#555555;stroke:#555555;stroke-width:0.8;" x="348.039" xlink:href="#m70679ae1e2" y="351.44"/>
      </g>
     </g>
     <g id="text_3">
      <!-- 300 -->
      <defs>
       <path d="M 40.578125 39.3125 
Q 47.65625 37.796875 51.625 33 
Q 55.609375 28.21875 55.609375 21.1875 
Q 55.609375 10.40625 48.1875 4.484375 
Q 40.765625 -1.421875 27.09375 -1.421875 
Q 22.515625 -1.421875 17.65625 -0.515625 
Q 12.796875 0.390625 7.625 2.203125 
L 7.625 11.71875 
Q 11.71875 9.328125 16.59375 8.109375 
Q 21.484375 6.890625 26.8125 6.890625 
Q 36.078125 6.890625 40.9375 10.546875 
Q 45.796875 14.203125 45.796875 21.1875 
Q 45.796875 27.640625 41.28125 31.265625 
Q 36.765625 34.90625 28.71875 34.90625 
L 20.21875 34.90625 
L 20.21875 43.015625 
L 29.109375 43.015625 
Q 36.375 43.015625 40.234375 45.921875 
Q 44.09375 48.828125 44.09375 54.296875 
Q 44.09375 59.90625 40.109375 62.90625 
Q 36.140625 65.921875 28.71875 65.921875 
Q 24.65625 65.921875 20.015625 65.03125 
Q 15.375 64.15625 9.8125 62.3125 
L 9.8125 71.09375 
Q 15.4375 72.65625 20.34375 73.4375 
Q 25.25 74.21875 29.59375 74.21875 
Q 40.828125 74.21875 47.359375 69.109375 
Q 53.90625 64.015625 53.90625 55.328125 
Q 53.90625 49.265625 50.4375 45.09375 
Q 46.96875 40.921875 40.578125 39.3125 
z
" id="DejaVuSans-51"/>
      </defs>
      <g style="fill:#555555;" transform="translate(325.134 375.67625)scale(0.24 -0.24)">
       <use xlink:href="#DejaVuSans-51"/>
       <use x="63.623047" xlink:href="#DejaVuSans-48"/>
       <use x="127.246094" xlink:href="#DejaVuSans-48"/>
      </g>
     </g>
    </g>
    <g id="xtick_4">
     <g id="line2d_4">
      <g>
       <use style="fill:#555555;stroke:#555555;stroke-width:0.8;" x="456.507" xlink:href="#m70679ae1e2" y="351.44"/>
      </g>
     </g>
     <g id="text_4">
      <!-- 400 -->
      <defs>
       <path d="M 37.796875 64.3125 
L 12.890625 25.390625 
L 37.796875 25.390625 
z
M 35.203125 72.90625 
L 47.609375 72.90625 
L 47.609375 25.390625 
L 58.015625 25.390625 
L 58.015625 17.1875 
L 47.609375 17.1875 
L 47.609375 0 
L 37.796875 0 
L 37.796875 17.1875 
L 4.890625 17.1875 
L 4.890625 26.703125 
z
" id="DejaVuSans-52"/>
      </defs>
      <g style="fill:#555555;" transform="translate(433.602 375.67625)scale(0.24 -0.24)">
       <use xlink:href="#DejaVuSans-52"/>
       <use x="63.623047" xlink:href="#DejaVuSans-48"/>
       <use x="127.246094" xlink:href="#DejaVuSans-48"/>
      </g>
     </g>
    </g>
    <g id="xtick_5">
     <g id="line2d_5">
      <g>
       <use style="fill:#555555;stroke:#555555;stroke-width:0.8;" x="564.975" xlink:href="#m70679ae1e2" y="351.44"/>
      </g>
     </g>
     <g id="text_5">
      <!-- 500 -->
      <defs>
       <path d="M 10.796875 72.90625 
L 49.515625 72.90625 
L 49.515625 64.59375 
L 19.828125 64.59375 
L 19.828125 46.734375 
Q 21.96875 47.46875 24.109375 47.828125 
Q 26.265625 48.1875 28.421875 48.1875 
Q 40.625 48.1875 47.75 41.5 
Q 54.890625 34.8125 54.890625 23.390625 
Q 54.890625 11.625 47.5625 5.09375 
Q 40.234375 -1.421875 26.90625 -1.421875 
Q 22.3125 -1.421875 17.546875 -0.640625 
Q 12.796875 0.140625 7.71875 1.703125 
L 7.71875 11.625 
Q 12.109375 9.234375 16.796875 8.0625 
Q 21.484375 6.890625 26.703125 6.890625 
Q 35.15625 6.890625 40.078125 11.328125 
Q 45.015625 15.765625 45.015625 23.390625 
Q 45.015625 31 40.078125 35.4375 
Q 35.15625 39.890625 26.703125 39.890625 
Q 22.75 39.890625 18.8125 39.015625 
Q 14.890625 38.140625 10.796875 36.28125 
z
" id="DejaVuSans-53"/>
      </defs>
      <g style="fill:#555555;" transform="translate(542.07 375.67625)scale(0.24 -0.24)">
       <use xlink:href="#DejaVuSans-53"/>
       <use x="63.623047" xlink:href="#DejaVuSans-48"/>
       <use x="127.246094" xlink:href="#DejaVuSans-48"/>
      </g>
     </g>
    </g>
    <g id="xtick_6">
     <g id="line2d_6">
      <g>
       <use style="fill:#555555;stroke:#555555;stroke-width:0.8;" x="673.443" xlink:href="#m70679ae1e2" y="351.44"/>
      </g>
     </g>
     <g id="text_6">
      <!-- 600 -->
      <defs>
       <path d="M 33.015625 40.375 
Q 26.375 40.375 22.484375 35.828125 
Q 18.609375 31.296875 18.609375 23.390625 
Q 18.609375 15.53125 22.484375 10.953125 
Q 26.375 6.390625 33.015625 6.390625 
Q 39.65625 6.390625 43.53125 10.953125 
Q 47.40625 15.53125 47.40625 23.390625 
Q 47.40625 31.296875 43.53125 35.828125 
Q 39.65625 40.375 33.015625 40.375 
z
M 52.59375 71.296875 
L 52.59375 62.3125 
Q 48.875 64.0625 45.09375 64.984375 
Q 41.3125 65.921875 37.59375 65.921875 
Q 27.828125 65.921875 22.671875 59.328125 
Q 17.53125 52.734375 16.796875 39.40625 
Q 19.671875 43.65625 24.015625 45.921875 
Q 28.375 48.1875 33.59375 48.1875 
Q 44.578125 48.1875 50.953125 41.515625 
Q 57.328125 34.859375 57.328125 23.390625 
Q 57.328125 12.15625 50.6875 5.359375 
Q 44.046875 -1.421875 33.015625 -1.421875 
Q 20.359375 -1.421875 13.671875 8.265625 
Q 6.984375 17.96875 6.984375 36.375 
Q 6.984375 53.65625 15.1875 63.9375 
Q 23.390625 74.21875 37.203125 74.21875 
Q 40.921875 74.21875 44.703125 73.484375 
Q 48.484375 72.75 52.59375 71.296875 
z
" id="DejaVuSans-54"/>
      </defs>
      <g style="fill:#555555;" transform="translate(650.538 375.67625)scale(0.24 -0.24)">
       <use xlink:href="#DejaVuSans-54"/>
       <use x="63.623047" xlink:href="#DejaVuSans-48"/>
       <use x="127.246094" xlink:href="#DejaVuSans-48"/>
      </g>
     </g>
    </g>
    <g id="text_7">
     <!-- Temperature \ K -->
     <defs>
      <path d="M -0.296875 72.90625 
L 61.375 72.90625 
L 61.375 64.59375 
L 35.5 64.59375 
L 35.5 0 
L 25.59375 0 
L 25.59375 64.59375 
L -0.296875 64.59375 
z
" id="DejaVuSans-84"/>
      <path d="M 56.203125 29.59375 
L 56.203125 25.203125 
L 14.890625 25.203125 
Q 15.484375 15.921875 20.484375 11.0625 
Q 25.484375 6.203125 34.421875 6.203125 
Q 39.59375 6.203125 44.453125 7.46875 
Q 49.3125 8.734375 54.109375 11.28125 
L 54.109375 2.78125 
Q 49.265625 0.734375 44.1875 -0.34375 
Q 39.109375 -1.421875 33.890625 -1.421875 
Q 20.796875 -1.421875 13.15625 6.1875 
Q 5.515625 13.8125 5.515625 26.8125 
Q 5.515625 40.234375 12.765625 48.109375 
Q 20.015625 56 32.328125 56 
Q 43.359375 56 49.78125 48.890625 
Q 56.203125 41.796875 56.203125 29.59375 
z
M 47.21875 32.234375 
Q 47.125 39.59375 43.09375 43.984375 
Q 39.0625 48.390625 32.421875 48.390625 
Q 24.90625 48.390625 20.390625 44.140625 
Q 15.875 39.890625 15.1875 32.171875 
z
" id="DejaVuSans-101"/>
      <path d="M 52 44.1875 
Q 55.375 50.25 60.0625 53.125 
Q 64.75 56 71.09375 56 
Q 79.640625 56 84.28125 50.015625 
Q 88.921875 44.046875 88.921875 33.015625 
L 88.921875 0 
L 79.890625 0 
L 79.890625 32.71875 
Q 79.890625 40.578125 77.09375 44.375 
Q 74.3125 48.1875 68.609375 48.1875 
Q 61.625 48.1875 57.5625 43.546875 
Q 53.515625 38.921875 53.515625 30.90625 
L 53.515625 0 
L 44.484375 0 
L 44.484375 32.71875 
Q 44.484375 40.625 41.703125 44.40625 
Q 38.921875 48.1875 33.109375 48.1875 
Q 26.21875 48.1875 22.15625 43.53125 
Q 18.109375 38.875 18.109375 30.90625 
L 18.109375 0 
L 9.078125 0 
L 9.078125 54.6875 
L 18.109375 54.6875 
L 18.109375 46.1875 
Q 21.1875 51.21875 25.484375 53.609375 
Q 29.78125 56 35.6875 56 
Q 41.65625 56 45.828125 52.96875 
Q 50 49.953125 52 44.1875 
z
" id="DejaVuSans-109"/>
      <path d="M 18.109375 8.203125 
L 18.109375 -20.796875 
L 9.078125 -20.796875 
L 9.078125 54.6875 
L 18.109375 54.6875 
L 18.109375 46.390625 
Q 20.953125 51.265625 25.265625 53.625 
Q 29.59375 56 35.59375 56 
Q 45.5625 56 51.78125 48.09375 
Q 58.015625 40.1875 58.015625 27.296875 
Q 58.015625 14.40625 51.78125 6.484375 
Q 45.5625 -1.421875 35.59375 -1.421875 
Q 29.59375 -1.421875 25.265625 0.953125 
Q 20.953125 3.328125 18.109375 8.203125 
z
M 48.6875 27.296875 
Q 48.6875 37.203125 44.609375 42.84375 
Q 40.53125 48.484375 33.40625 48.484375 
Q 26.265625 48.484375 22.1875 42.84375 
Q 18.109375 37.203125 18.109375 27.296875 
Q 18.109375 17.390625 22.1875 11.75 
Q 26.265625 6.109375 33.40625 6.109375 
Q 40.53125 6.109375 44.609375 11.75 
Q 48.6875 17.390625 48.6875 27.296875 
z
" id="DejaVuSans-112"/>
      <path d="M 41.109375 46.296875 
Q 39.59375 47.171875 37.8125 47.578125 
Q 36.03125 48 33.890625 48 
Q 26.265625 48 22.1875 43.046875 
Q 18.109375 38.09375 18.109375 28.8125 
L 18.109375 0 
L 9.078125 0 
L 9.078125 54.6875 
L 18.109375 54.6875 
L 18.109375 46.1875 
Q 20.953125 51.171875 25.484375 53.578125 
Q 30.03125 56 36.53125 56 
Q 37.453125 56 38.578125 55.875 
Q 39.703125 55.765625 41.0625 55.515625 
z
" id="DejaVuSans-114"/>
      <path d="M 34.28125 27.484375 
Q 23.390625 27.484375 19.1875 25 
Q 14.984375 22.515625 14.984375 16.5 
Q 14.984375 11.71875 18.140625 8.90625 
Q 21.296875 6.109375 26.703125 6.109375 
Q 34.1875 6.109375 38.703125 11.40625 
Q 43.21875 16.703125 43.21875 25.484375 
L 43.21875 27.484375 
z
M 52.203125 31.203125 
L 52.203125 0 
L 43.21875 0 
L 43.21875 8.296875 
Q 40.140625 3.328125 35.546875 0.953125 
Q 30.953125 -1.421875 24.3125 -1.421875 
Q 15.921875 -1.421875 10.953125 3.296875 
Q 6 8.015625 6 15.921875 
Q 6 25.140625 12.171875 29.828125 
Q 18.359375 34.515625 30.609375 34.515625 
L 43.21875 34.515625 
L 43.21875 35.40625 
Q 43.21875 41.609375 39.140625 45 
Q 35.0625 48.390625 27.6875 48.390625 
Q 23 48.390625 18.546875 47.265625 
Q 14.109375 46.140625 10.015625 43.890625 
L 10.015625 52.203125 
Q 14.9375 54.109375 19.578125 55.046875 
Q 24.21875 56 28.609375 56 
Q 40.484375 56 46.34375 49.84375 
Q 52.203125 43.703125 52.203125 31.203125 
z
" id="DejaVuSans-97"/>
      <path d="M 18.3125 70.21875 
L 18.3125 54.6875 
L 36.8125 54.6875 
L 36.8125 47.703125 
L 18.3125 47.703125 
L 18.3125 18.015625 
Q 18.3125 11.328125 20.140625 9.421875 
Q 21.96875 7.515625 27.59375 7.515625 
L 36.8125 7.515625 
L 36.8125 0 
L 27.59375 0 
Q 17.1875 0 13.234375 3.875 
Q 9.28125 7.765625 9.28125 18.015625 
L 9.28125 47.703125 
L 2.6875 47.703125 
L 2.6875 54.6875 
L 9.28125 54.6875 
L 9.28125 70.21875 
z
" id="DejaVuSans-116"/>
      <path d="M 8.5 21.578125 
L 8.5 54.6875 
L 17.484375 54.6875 
L 17.484375 21.921875 
Q 17.484375 14.15625 20.5 10.265625 
Q 23.53125 6.390625 29.59375 6.390625 
Q 36.859375 6.390625 41.078125 11.03125 
Q 45.3125 15.671875 45.3125 23.6875 
L 45.3125 54.6875 
L 54.296875 54.6875 
L 54.296875 0 
L 45.3125 0 
L 45.3125 8.40625 
Q 42.046875 3.421875 37.71875 1 
Q 33.40625 -1.421875 27.6875 -1.421875 
Q 18.265625 -1.421875 13.375 4.4375 
Q 8.5 10.296875 8.5 21.578125 
z
M 31.109375 56 
z
" id="DejaVuSans-117"/>
      <path id="DejaVuSans-32"/>
      <path d="M 8.296875 72.90625 
L 33.6875 -9.28125 
L 25.390625 -9.28125 
L 0 72.90625 
z
" id="DejaVuSans-92"/>
      <path d="M 9.8125 72.90625 
L 19.671875 72.90625 
L 19.671875 42.09375 
L 52.390625 72.90625 
L 65.09375 72.90625 
L 28.90625 38.921875 
L 67.671875 0 
L 54.6875 0 
L 19.671875 35.109375 
L 19.671875 0 
L 9.8125 0 
z
" id="DejaVuSans-75"/>
     </defs>
     <g style="fill:#555555;" transform="translate(288.148937 405.943125)scale(0.28 -0.28)">
      <use xlink:href="#DejaVuSans-84"/>
      <use x="60.818359" xlink:href="#DejaVuSans-101"/>
      <use x="122.341797" xlink:href="#DejaVuSans-109"/>
      <use x="219.753906" xlink:href="#DejaVuSans-112"/>
      <use x="283.230469" xlink:href="#DejaVuSans-101"/>
      <use x="344.753906" xlink:href="#DejaVuSans-114"/>
      <use x="385.867188" xlink:href="#DejaVuSans-97"/>
      <use x="447.146484" xlink:href="#DejaVuSans-116"/>
      <use x="486.355469" xlink:href="#DejaVuSans-117"/>
      <use x="549.734375" xlink:href="#DejaVuSans-114"/>
      <use x="590.816406" xlink:href="#DejaVuSans-101"/>
      <use x="652.339844" xlink:href="#DejaVuSans-32"/>
      <use x="684.126953" xlink:href="#DejaVuSans-92"/>
      <use x="717.818359" xlink:href="#DejaVuSans-32"/>
      <use x="749.605469" xlink:href="#DejaVuSans-75"/>
     </g>
    </g>
   </g>
   <g id="matplotlib.axis_2">
    <g id="ytick_1">
     <g id="line2d_7">
      <defs>
       <path d="M 0 0 
L 8 0 
" id="m8af1e15331" style="stroke:#555555;stroke-width:0.8;"/>
      </defs>
      <g>
       <use style="fill:#555555;stroke:#555555;stroke-width:0.8;" x="103.986" xlink:href="#m8af1e15331" y="336.349091"/>
      </g>
     </g>
     <g id="text_8">
      <!-- 0.0 -->
      <defs>
       <path d="M 10.6875 12.40625 
L 21 12.40625 
L 21 0 
L 10.6875 0 
z
" id="DejaVuSans-46"/>
      </defs>
      <g style="fill:#555555;" transform="translate(59.8185 345.467216)scale(0.24 -0.24)">
       <use xlink:href="#DejaVuSans-48"/>
       <use x="63.623047" xlink:href="#DejaVuSans-46"/>
       <use x="95.410156" xlink:href="#DejaVuSans-48"/>
      </g>
     </g>
    </g>
    <g id="ytick_2">
     <g id="line2d_8">
      <g>
       <use style="fill:#555555;stroke:#555555;stroke-width:0.8;" x="103.986" xlink:href="#m8af1e15331" y="275.985455"/>
      </g>
     </g>
     <g id="text_9">
      <!-- 0.2 -->
      <g style="fill:#555555;" transform="translate(59.8185 285.10358)scale(0.24 -0.24)">
       <use xlink:href="#DejaVuSans-48"/>
       <use x="63.623047" xlink:href="#DejaVuSans-46"/>
       <use x="95.410156" xlink:href="#DejaVuSans-50"/>
      </g>
     </g>
    </g>
    <g id="ytick_3">
     <g id="line2d_9">
      <g>
       <use style="fill:#555555;stroke:#555555;stroke-width:0.8;" x="103.986" xlink:href="#m8af1e15331" y="215.621818"/>
      </g>
     </g>
     <g id="text_10">
      <!-- 0.4 -->
      <g style="fill:#555555;" transform="translate(59.8185 224.739943)scale(0.24 -0.24)">
       <use xlink:href="#DejaVuSans-48"/>
       <use x="63.623047" xlink:href="#DejaVuSans-46"/>
       <use x="95.410156" xlink:href="#DejaVuSans-52"/>
      </g>
     </g>
    </g>
    <g id="ytick_4">
     <g id="line2d_10">
      <g>
       <use style="fill:#555555;stroke:#555555;stroke-width:0.8;" x="103.986" xlink:href="#m8af1e15331" y="155.258182"/>
      </g>
     </g>
     <g id="text_11">
      <!-- 0.6 -->
      <g style="fill:#555555;" transform="translate(59.8185 164.376307)scale(0.24 -0.24)">
       <use xlink:href="#DejaVuSans-48"/>
       <use x="63.623047" xlink:href="#DejaVuSans-46"/>
       <use x="95.410156" xlink:href="#DejaVuSans-54"/>
      </g>
     </g>
    </g>
    <g id="ytick_5">
     <g id="line2d_11">
      <g>
       <use style="fill:#555555;stroke:#555555;stroke-width:0.8;" x="103.986" xlink:href="#m8af1e15331" y="94.894545"/>
      </g>
     </g>
     <g id="text_12">
      <!-- 0.8 -->
      <defs>
       <path d="M 31.78125 34.625 
Q 24.75 34.625 20.71875 30.859375 
Q 16.703125 27.09375 16.703125 20.515625 
Q 16.703125 13.921875 20.71875 10.15625 
Q 24.75 6.390625 31.78125 6.390625 
Q 38.8125 6.390625 42.859375 10.171875 
Q 46.921875 13.96875 46.921875 20.515625 
Q 46.921875 27.09375 42.890625 30.859375 
Q 38.875 34.625 31.78125 34.625 
z
M 21.921875 38.8125 
Q 15.578125 40.375 12.03125 44.71875 
Q 8.5 49.078125 8.5 55.328125 
Q 8.5 64.0625 14.71875 69.140625 
Q 20.953125 74.21875 31.78125 74.21875 
Q 42.671875 74.21875 48.875 69.140625 
Q 55.078125 64.0625 55.078125 55.328125 
Q 55.078125 49.078125 51.53125 44.71875 
Q 48 40.375 41.703125 38.8125 
Q 48.828125 37.15625 52.796875 32.3125 
Q 56.78125 27.484375 56.78125 20.515625 
Q 56.78125 9.90625 50.3125 4.234375 
Q 43.84375 -1.421875 31.78125 -1.421875 
Q 19.734375 -1.421875 13.25 4.234375 
Q 6.78125 9.90625 6.78125 20.515625 
Q 6.78125 27.484375 10.78125 32.3125 
Q 14.796875 37.15625 21.921875 38.8125 
z
M 18.3125 54.390625 
Q 18.3125 48.734375 21.84375 45.5625 
Q 25.390625 42.390625 31.78125 42.390625 
Q 38.140625 42.390625 41.71875 45.5625 
Q 45.3125 48.734375 45.3125 54.390625 
Q 45.3125 60.0625 41.71875 63.234375 
Q 38.140625 66.40625 31.78125 66.40625 
Q 25.390625 66.40625 21.84375 63.234375 
Q 18.3125 60.0625 18.3125 54.390625 
z
" id="DejaVuSans-56"/>
      </defs>
      <g style="fill:#555555;" transform="translate(59.8185 104.01267)scale(0.24 -0.24)">
       <use xlink:href="#DejaVuSans-48"/>
       <use x="63.623047" xlink:href="#DejaVuSans-46"/>
       <use x="95.410156" xlink:href="#DejaVuSans-56"/>
      </g>
     </g>
    </g>
    <g id="ytick_6">
     <g id="line2d_12">
      <g>
       <use style="fill:#555555;stroke:#555555;stroke-width:0.8;" x="103.986" xlink:href="#m8af1e15331" y="34.530909"/>
      </g>
     </g>
     <g id="text_13">
      <!-- 1.0 -->
      <g style="fill:#555555;" transform="translate(59.8185 43.649034)scale(0.24 -0.24)">
       <use xlink:href="#DejaVuSans-49"/>
       <use x="63.623047" xlink:href="#DejaVuSans-46"/>
       <use x="95.410156" xlink:href="#DejaVuSans-48"/>
      </g>
     </g>
    </g>
    <g id="text_14">
     <!-- Relative $\theta_{CO}^{eq}$  -->
     <defs>
      <path d="M 44.390625 34.1875 
Q 47.5625 33.109375 50.5625 29.59375 
Q 53.5625 26.078125 56.59375 19.921875 
L 66.609375 0 
L 56 0 
L 46.6875 18.703125 
Q 43.0625 26.03125 39.671875 28.421875 
Q 36.28125 30.8125 30.421875 30.8125 
L 19.671875 30.8125 
L 19.671875 0 
L 9.8125 0 
L 9.8125 72.90625 
L 32.078125 72.90625 
Q 44.578125 72.90625 50.734375 67.671875 
Q 56.890625 62.453125 56.890625 51.90625 
Q 56.890625 45.015625 53.6875 40.46875 
Q 50.484375 35.9375 44.390625 34.1875 
z
M 19.671875 64.796875 
L 19.671875 38.921875 
L 32.078125 38.921875 
Q 39.203125 38.921875 42.84375 42.21875 
Q 46.484375 45.515625 46.484375 51.90625 
Q 46.484375 58.296875 42.84375 61.546875 
Q 39.203125 64.796875 32.078125 64.796875 
z
" id="DejaVuSans-82"/>
      <path d="M 9.421875 75.984375 
L 18.40625 75.984375 
L 18.40625 0 
L 9.421875 0 
z
" id="DejaVuSans-108"/>
      <path d="M 9.421875 54.6875 
L 18.40625 54.6875 
L 18.40625 0 
L 9.421875 0 
z
M 9.421875 75.984375 
L 18.40625 75.984375 
L 18.40625 64.59375 
L 9.421875 64.59375 
z
" id="DejaVuSans-105"/>
      <path d="M 2.984375 54.6875 
L 12.5 54.6875 
L 29.59375 8.796875 
L 46.6875 54.6875 
L 56.203125 54.6875 
L 35.6875 0 
L 23.484375 0 
z
" id="DejaVuSans-118"/>
      <path d="M 45.515625 34.671875 
L 14.453125 34.671875 
Q 12.359375 20.0625 14.5 13.875 
Q 17.1875 6.25 24.46875 6.25 
Q 31.78125 6.25 37.359375 13.921875 
Q 42.234375 20.65625 45.515625 34.671875 
z
M 47.015625 42.96875 
Q 48.34375 56.84375 46.625 61.71875 
Q 43.953125 69.4375 36.765625 69.4375 
Q 29.296875 69.4375 23.828125 61.8125 
Q 19.53125 55.671875 16.15625 42.96875 
z
M 38.1875 76.765625 
Q 49.90625 76.765625 54.59375 66.40625 
Q 59.28125 56.109375 55.71875 37.84375 
Q 52.203125 19.625 43.453125 9.28125 
Q 34.765625 -1.125 23.046875 -1.125 
Q 11.28125 -1.125 6.640625 9.28125 
Q 2 19.625 5.515625 37.84375 
Q 9.078125 56.109375 17.71875 66.40625 
Q 26.421875 76.765625 38.1875 76.765625 
z
" id="DejaVuSans-Oblique-952"/>
      <path d="M 48.09375 32.234375 
Q 48.25 33.015625 48.3125 33.84375 
Q 48.390625 34.671875 48.390625 35.5 
Q 48.390625 41.453125 44.890625 44.921875 
Q 41.40625 48.390625 35.40625 48.390625 
Q 28.71875 48.390625 23.578125 44.15625 
Q 18.453125 39.9375 15.828125 32.171875 
z
M 55.90625 25.203125 
L 14.109375 25.203125 
Q 13.8125 23.34375 13.71875 22.265625 
Q 13.625 21.1875 13.625 20.40625 
Q 13.625 13.625 17.796875 9.90625 
Q 21.96875 6.203125 29.59375 6.203125 
Q 35.453125 6.203125 40.671875 7.515625 
Q 45.90625 8.84375 50.390625 11.375 
L 48.6875 2.484375 
Q 43.84375 0.53125 38.6875 -0.4375 
Q 33.546875 -1.421875 28.21875 -1.421875 
Q 16.84375 -1.421875 10.71875 4.015625 
Q 4.59375 9.46875 4.59375 19.484375 
Q 4.59375 28.03125 7.640625 35.375 
Q 10.6875 42.71875 16.609375 48.484375 
Q 20.40625 52.09375 25.65625 54.046875 
Q 30.90625 56 36.8125 56 
Q 46.09375 56 51.578125 50.4375 
Q 57.078125 44.875 57.078125 35.5 
Q 57.078125 33.25 56.78125 30.6875 
Q 56.5 28.125 55.90625 25.203125 
z
" id="DejaVuSans-Oblique-101"/>
      <path d="M 41.703125 8.203125 
Q 38.09375 3.46875 33.171875 1.015625 
Q 28.265625 -1.421875 22.3125 -1.421875 
Q 14.015625 -1.421875 9.296875 4.171875 
Q 4.59375 9.765625 4.59375 19.578125 
Q 4.59375 27.484375 7.5 34.859375 
Q 10.40625 42.234375 15.828125 48.09375 
Q 19.34375 51.90625 23.90625 53.953125 
Q 28.46875 56 33.5 56 
Q 39.546875 56 43.453125 53.609375 
Q 47.359375 51.21875 49.125 46.390625 
L 50.6875 54.59375 
L 59.71875 54.59375 
L 45.125 -20.609375 
L 36.078125 -20.609375 
z
M 13.921875 20.90625 
Q 13.921875 13.671875 16.9375 9.890625 
Q 19.96875 6.109375 25.6875 6.109375 
Q 34.1875 6.109375 40.1875 14.234375 
Q 46.1875 22.359375 46.1875 33.984375 
Q 46.1875 41.015625 43.078125 44.75 
Q 39.984375 48.484375 34.1875 48.484375 
Q 29.9375 48.484375 26.3125 46.5 
Q 22.703125 44.53125 20.015625 40.71875 
Q 17.1875 36.71875 15.546875 31.34375 
Q 13.921875 25.984375 13.921875 20.90625 
z
" id="DejaVuSans-Oblique-113"/>
      <path d="M 69.484375 67.28125 
L 67.484375 56.890625 
Q 62.796875 61.625 57.546875 63.921875 
Q 52.296875 66.21875 46.1875 66.21875 
Q 37.84375 66.21875 31.515625 62.203125 
Q 25.203125 58.203125 20.609375 50 
Q 17.671875 44.734375 16.125 38.84375 
Q 14.59375 32.953125 14.59375 27 
Q 14.59375 17.046875 19.75 11.8125 
Q 24.90625 6.59375 34.71875 6.59375 
Q 41.5 6.59375 47.75 8.765625 
Q 54 10.9375 59.90625 15.28125 
L 57.625 3.609375 
Q 51.8125 1.125 45.875 -0.140625 
Q 39.9375 -1.421875 33.984375 -1.421875 
Q 19.96875 -1.421875 12.078125 6.1875 
Q 4.203125 13.8125 4.203125 27.390625 
Q 4.203125 36.078125 7.203125 44.46875 
Q 10.203125 52.875 15.828125 59.8125 
Q 21.78125 67.1875 29.421875 70.703125 
Q 37.0625 74.21875 47.21875 74.21875 
Q 53.46875 74.21875 59.0625 72.484375 
Q 64.65625 70.75 69.484375 67.28125 
z
" id="DejaVuSans-Oblique-67"/>
      <path d="M 45.609375 66.21875 
Q 37.5 66.21875 31.296875 62.28125 
Q 25.09375 58.34375 20.515625 50.296875 
Q 17.578125 45.171875 16.03125 39.40625 
Q 14.5 33.640625 14.5 27.78125 
Q 14.5 17.625 19.359375 12.109375 
Q 24.21875 6.59375 33.109375 6.59375 
Q 41.109375 6.59375 47.375 10.5625 
Q 53.65625 14.546875 58.109375 22.40625 
Q 61.078125 27.6875 62.640625 33.46875 
Q 64.203125 39.265625 64.203125 45.015625 
Q 64.203125 55.125 59.3125 60.671875 
Q 54.4375 66.21875 45.609375 66.21875 
z
M 32.8125 -1.421875 
Q 19.390625 -1.421875 11.6875 6.53125 
Q 4 14.5 4 28.328125 
Q 4 36.234375 7 44.484375 
Q 10.015625 52.734375 15.28125 59.1875 
Q 21.484375 66.75 29.09375 70.484375 
Q 36.71875 74.21875 45.90625 74.21875 
Q 59.28125 74.21875 66.984375 66.328125 
Q 74.703125 58.453125 74.703125 44.828125 
Q 74.703125 36.421875 71.765625 28.3125 
Q 68.84375 20.21875 63.375 13.625 
Q 57.125 6 49.578125 2.28125 
Q 42.046875 -1.421875 32.8125 -1.421875 
z
" id="DejaVuSans-Oblique-79"/>
     </defs>
     <g style="fill:#555555;" transform="translate(47.6985 275.04)rotate(-90)scale(0.28 -0.28)">
      <use transform="translate(0 0.264063)" xlink:href="#DejaVuSans-82"/>
      <use transform="translate(69.482422 0.264063)" xlink:href="#DejaVuSans-101"/>
      <use transform="translate(131.005859 0.264063)" xlink:href="#DejaVuSans-108"/>
      <use transform="translate(158.789062 0.264063)" xlink:href="#DejaVuSans-97"/>
      <use transform="translate(220.068359 0.264063)" xlink:href="#DejaVuSans-116"/>
      <use transform="translate(259.277344 0.264063)" xlink:href="#DejaVuSans-105"/>
      <use transform="translate(287.060547 0.264063)" xlink:href="#DejaVuSans-118"/>
      <use transform="translate(346.240234 0.264063)" xlink:href="#DejaVuSans-101"/>
      <use transform="translate(407.763672 0.264063)" xlink:href="#DejaVuSans-32"/>
      <use transform="translate(439.550781 0.264063)" xlink:href="#DejaVuSans-Oblique-952"/>
      <use transform="translate(508.289505 51.8)scale(0.7)" xlink:href="#DejaVuSans-Oblique-101"/>
      <use transform="translate(551.355911 51.8)scale(0.7)" xlink:href="#DejaVuSans-Oblique-113"/>
      <use transform="translate(500.732422 -27.079687)scale(0.7)" xlink:href="#DejaVuSans-Oblique-67"/>
      <use transform="translate(549.609375 -27.079687)scale(0.7)" xlink:href="#DejaVuSans-Oblique-79"/>
      <use transform="translate(607.441406 0.264063)" xlink:href="#DejaVuSans-32"/>
     </g>
    </g>
   </g>
   <g id="line2d_13">
    <path clip-path="url(#p050d49b680)" d="M 346.032342 351.44 
L 346.032342 19.44 
" style="fill:none;stroke:#000000;stroke-dasharray:11.1,4.8;stroke-dashoffset:0;stroke-opacity:0.5;stroke-width:3;"/>
   </g>
   <g id="line2d_14"/>
   <g id="line2d_15">
    <path clip-path="url(#p050d49b680)" d="M 131.103 34.530909 
L 332.170936 34.641223 
L 353.90801 34.837535 
L 364.776547 35.145397 
L 371.297669 35.52515 
L 376.731938 36.073071 
L 381.079353 36.777764 
L 384.339914 37.554595 
L 386.513621 38.242147 
L 388.687329 39.110925 
L 390.861036 40.213229 
L 393.034743 41.617113 
L 395.208451 43.410967 
L 397.382158 45.70912 
L 398.469012 47.091727 
L 399.555866 48.65839 
L 400.642719 50.433697 
L 401.729573 52.445132 
L 402.816427 54.723237 
L 403.903281 57.301702 
L 404.990134 60.217373 
L 406.076988 63.510098 
L 407.163842 67.222395 
L 408.250695 71.39886 
L 409.337549 76.085254 
L 410.424403 81.327198 
L 411.511257 87.168422 
L 413.684964 100.80022 
L 415.858671 117.195622 
L 418.032379 136.352878 
L 420.206086 157.950439 
L 423.466647 193.298404 
L 426.727208 228.868119 
L 428.900916 250.726728 
L 431.074623 270.024069 
L 433.248331 286.276508 
L 434.335184 293.221852 
L 435.422038 299.402261 
L 436.508892 304.854527 
L 437.595745 309.626389 
L 438.682599 313.772593 
L 439.769453 317.351475 
L 440.856307 320.422183 
L 441.94316 323.042545 
L 443.030014 325.267543 
L 444.116868 327.148301 
L 445.203721 328.731516 
L 446.290575 330.059204 
L 447.377429 331.168712 
L 448.464283 332.092883 
L 450.63799 333.495857 
L 452.811697 334.453019 
L 454.985405 335.09951 
L 457.159112 335.532138 
L 460.419673 335.923482 
L 464.767088 336.175372 
L 472.375064 336.315412 
L 493.025285 336.348845 
L 673.443 336.349091 
L 673.443 336.349091 
" style="fill:none;stroke:#d62728;stroke-linecap:square;stroke-width:3;"/>
   </g>
   <g id="line2d_16">
    <path clip-path="url(#p050d49b680)" d="M 131.103 34.530909 
L 334.344643 34.640315 
L 357.168571 34.830397 
L 368.037108 35.111772 
L 375.645084 35.528326 
L 381.079353 36.05869 
L 385.426768 36.733064 
L 388.687329 37.469587 
L 391.94789 38.500351 
L 394.121597 39.413561 
L 396.295305 40.567849 
L 398.469012 42.032076 
L 400.642719 43.895184 
L 402.816427 46.271531 
L 403.903281 47.696354 
L 404.990134 49.307022 
L 406.076988 51.127764 
L 407.163842 53.185559 
L 408.250695 55.510265 
L 409.337549 58.134685 
L 410.424403 61.094531 
L 411.511257 64.428248 
L 412.59811 68.176654 
L 413.684964 72.382332 
L 414.771818 77.088724 
L 415.858671 82.33886 
L 416.945525 88.173672 
L 419.119232 101.737357 
L 421.29294 117.973959 
L 423.466647 136.870378 
L 425.640355 158.112444 
L 428.900916 192.826977 
L 432.161477 227.818024 
L 434.335184 249.415645 
L 436.508892 268.584974 
L 438.682599 284.836442 
L 439.769453 291.820609 
L 440.856307 298.05999 
L 441.94316 303.586576 
L 443.030014 308.443502 
L 444.116868 312.681341 
L 445.203721 316.354829 
L 446.290575 319.520147 
L 447.377429 322.232789 
L 448.464283 324.545994 
L 449.551136 326.509671 
L 450.63799 328.169743 
L 451.724844 329.567821 
L 452.811697 330.741128 
L 453.898551 331.722601 
L 456.072259 333.221796 
L 458.245966 334.25335 
L 460.419673 334.956083 
L 462.593381 335.430433 
L 465.853942 335.864088 
L 470.201357 336.147467 
L 476.722479 336.297944 
L 493.025285 336.34785 
L 673.443 336.349091 
L 673.443 336.349091 
" style="fill:none;stroke:#d62728;stroke-linecap:square;stroke-width:3;"/>
   </g>
   <g id="line2d_17">
    <path clip-path="url(#p050d49b680)" d="M 131.103 34.530909 
L 333.25779 34.639685 
L 354.994864 34.82721 
L 365.863401 35.112016 
L 373.471377 35.534067 
L 378.905645 36.071217 
L 383.25306 36.75349 
L 386.513621 37.497634 
L 389.774182 38.537416 
L 391.94789 39.457165 
L 394.121597 40.617985 
L 396.295305 42.088039 
L 398.469012 43.955097 
L 400.642719 46.331659 
L 401.729573 47.754347 
L 402.816427 49.360779 
L 403.903281 51.174615 
L 404.990134 53.222151 
L 406.076988 55.532442 
L 407.163842 58.137354 
L 408.250695 61.071526 
L 409.337549 64.372191 
L 410.424403 68.078832 
L 411.511257 72.232597 
L 412.59811 76.875439 
L 413.684964 82.048914 
L 414.771818 87.792596 
L 416.945525 101.126541 
L 419.119232 117.068424 
L 421.29294 135.614476 
L 423.466647 156.476961 
L 426.727208 190.665659 
L 431.074623 236.353953 
L 433.248331 256.853606 
L 435.422038 274.758432 
L 437.595745 289.738133 
L 438.682599 296.123176 
L 439.769453 301.802352 
L 440.856307 306.81423 
L 441.94316 311.205522 
L 443.030014 315.02786 
L 444.116868 318.335071 
L 445.203721 321.180984 
L 446.290575 323.617773 
L 447.377429 325.694793 
L 448.464283 327.457813 
L 449.551136 328.948606 
L 450.63799 330.204784 
L 451.724844 331.259834 
L 452.811697 332.143283 
L 454.985405 333.495258 
L 457.159112 334.428416 
L 459.33282 335.066468 
L 461.506527 335.498961 
L 464.767088 335.896581 
L 469.114503 336.158703 
L 475.635625 336.299804 
L 491.938431 336.347817 
L 673.443 336.349091 
L 673.443 336.349091 
" style="fill:none;stroke:#d62728;stroke-linecap:square;stroke-width:3;"/>
   </g>
   <g id="line2d_18">
    <path clip-path="url(#p050d49b680)" d="M 131.103 34.530909 
L 329.997228 34.63706 
L 349.560595 34.839457 
L 359.342279 35.150891 
L 365.863401 35.58485 
L 370.210816 36.077614 
L 373.471377 36.626076 
L 376.731938 37.407662 
L 378.905645 38.111217 
L 381.079353 39.012926 
L 383.25306 40.173711 
L 385.426768 41.673997 
L 387.600475 43.619697 
L 388.687329 44.801435 
L 389.774182 46.149598 
L 390.861036 47.688082 
L 391.94789 49.443951 
L 393.034743 51.447706 
L 394.121597 53.73352 
L 395.208451 56.339396 
L 396.295305 59.307212 
L 397.382158 62.682587 
L 398.469012 66.514512 
L 399.555866 70.854645 
L 400.642719 75.756191 
L 401.729573 81.272261 
L 402.816427 87.453629 
L 403.903281 94.345824 
L 406.076988 110.396649 
L 408.250695 129.53626 
L 410.424403 151.529521 
L 413.684964 188.257111 
L 418.032379 237.687481 
L 420.206086 259.595241 
L 422.379794 278.382335 
L 423.466647 286.484401 
L 424.553501 293.72064 
L 425.640355 300.117683 
L 426.727208 305.720004 
L 427.814062 310.584546 
L 428.900916 314.775813 
L 429.98777 318.361721 
L 431.074623 321.410292 
L 432.161477 323.987221 
L 433.248331 326.154191 
L 434.335184 327.967853 
L 435.422038 329.479305 
L 436.508892 330.733959 
L 437.595745 331.771682 
L 438.682599 332.627106 
L 440.856307 333.906006 
L 443.030014 334.76009 
L 445.203721 335.324576 
L 448.464283 335.826978 
L 452.811697 336.142552 
L 459.33282 336.30071 
L 474.548772 336.347855 
L 673.443 336.349091 
L 673.443 336.349091 
" style="fill:none;stroke:#d62728;stroke-linecap:square;stroke-width:3;"/>
   </g>
   <g id="line2d_19">
    <path clip-path="url(#p050d49b680)" d="M 131.103 34.530909 
L 336.518351 34.639988 
L 360.429132 34.831952 
L 371.297669 35.101573 
L 378.905645 35.491029 
L 384.339914 35.976944 
L 388.687329 36.584414 
L 391.94789 37.238626 
L 395.208451 38.14257 
L 397.382158 38.934882 
L 399.555866 39.927521 
L 401.729573 41.175571 
L 403.903281 42.749735 
L 406.076988 44.740506 
L 408.250695 47.263069 
L 409.337549 48.767861 
L 410.424403 50.462769 
L 411.511257 52.371573 
L 412.59811 54.520573 
L 413.684964 56.938667 
L 414.771818 59.657356 
L 415.858671 62.710657 
L 416.945525 66.134865 
L 418.032379 69.968143 
L 419.119232 74.249883 
L 420.206086 79.019793 
L 421.29294 84.316651 
L 423.466647 96.631738 
L 425.640355 111.416973 
L 427.814062 128.741812 
L 429.98777 148.438309 
L 433.248331 181.317868 
L 438.682599 237.529242 
L 440.856307 257.574066 
L 443.030014 275.097205 
L 445.203721 289.792664 
L 446.290575 296.073171 
L 447.377429 301.671108 
L 448.464283 306.622786 
L 449.551136 310.972262 
L 450.63799 314.768357 
L 451.724844 318.062117 
L 452.811697 320.904763 
L 453.898551 323.346118 
L 454.985405 325.433483 
L 456.072259 327.210894 
L 457.159112 328.718693 
L 458.245966 329.993346 
L 459.33282 331.067446 
L 460.419673 331.969845 
L 462.593381 333.357599 
L 464.767088 334.322001 
L 466.940796 334.985991 
L 469.114503 335.439231 
L 472.375064 335.859532 
L 476.722479 336.140038 
L 483.243601 336.293701 
L 498.459553 336.347129 
L 673.443 336.349091 
L 673.443 336.349091 
" style="fill:none;stroke:#d62728;stroke-linecap:square;stroke-width:3;"/>
   </g>
   <g id="line2d_20">
    <path clip-path="url(#p050d49b680)" d="M 131.103 34.530909 
L 333.25779 34.641935 
L 356.081717 34.841239 
L 366.950255 35.143114 
L 373.471377 35.512478 
L 378.905645 36.042306 
L 383.25306 36.720556 
L 386.513621 37.465627 
L 388.687329 38.123493 
L 390.861036 38.953218 
L 393.034743 40.004125 
L 395.208451 41.340379 
L 397.382158 43.045331 
L 399.555866 45.226881 
L 401.729573 48.023811 
L 402.816427 49.706575 
L 403.903281 51.612771 
L 404.990134 53.771504 
L 406.076988 56.214992 
L 407.163842 58.978612 
L 408.250695 62.100823 
L 409.337549 65.622926 
L 410.424403 69.588597 
L 411.511257 74.043127 
L 412.59811 79.032307 
L 413.684964 84.600889 
L 414.771818 90.790572 
L 416.945525 105.169225 
L 419.119232 122.334458 
L 421.29294 142.206262 
L 423.466647 164.362708 
L 431.074623 246.114641 
L 433.248331 266.039908 
L 435.422038 282.991155 
L 436.508892 290.284971 
L 437.595745 296.801644 
L 438.682599 302.571689 
L 439.769453 307.638482 
L 440.856307 312.054141 
L 441.94316 315.875847 
L 443.030014 319.162764 
L 444.116868 321.973615 
L 445.203721 324.364887 
L 446.290575 326.389596 
L 447.377429 328.096529 
L 448.464283 329.529859 
L 449.551136 330.72905 
L 450.63799 331.72896 
L 451.724844 332.56008 
L 453.898551 333.818113 
L 456.072259 334.673103 
L 458.245966 335.248454 
L 461.506527 335.772084 
L 464.767088 336.051862 
L 470.201357 336.254403 
L 479.98304 336.338378 
L 535.412579 336.349091 
L 673.443 336.349091 
L 673.443 336.349091 
" style="fill:none;stroke:#d62728;stroke-linecap:square;stroke-width:3;"/>
   </g>
   <g id="line2d_21">
    <path clip-path="url(#p050d49b680)" d="M 131.103 34.530909 
L 336.518351 34.640465 
L 360.429132 34.837154 
L 371.297669 35.11938 
L 378.905645 35.53377 
L 384.339914 36.057874 
L 388.687329 36.720628 
L 391.94789 37.441193 
L 395.208451 38.445497 
L 397.382158 39.332215 
L 399.555866 40.449845 
L 401.729573 41.863546 
L 403.903281 43.6573 
L 406.076988 45.938896 
L 408.250695 48.845704 
L 409.337549 50.586097 
L 410.424403 52.550826 
L 411.511257 54.768037 
L 412.59811 57.268701 
L 413.684964 60.086611 
L 414.771818 63.258267 
L 415.858671 66.822595 
L 416.945525 70.820455 
L 418.032379 75.293888 
L 419.119232 80.285033 
L 420.206086 85.834674 
L 422.379794 98.754193 
L 424.553501 114.270476 
L 426.727208 132.422003 
L 428.900916 152.974929 
L 432.161477 186.974106 
L 436.508892 233.044162 
L 438.682599 253.955483 
L 440.856307 272.341971 
L 443.030014 287.811024 
L 444.116868 294.428008 
L 445.203721 300.324842 
L 446.290575 305.537381 
L 447.377429 310.110791 
L 448.464283 314.096144 
L 449.551136 317.547486 
L 450.63799 320.519443 
L 451.724844 323.065386 
L 452.811697 325.236102 
L 453.898551 327.078915 
L 454.985405 328.637173 
L 456.072259 329.950017 
L 457.159112 331.052376 
L 458.245966 331.9751 
L 460.419673 333.386161 
L 462.593381 334.358862 
L 464.767088 335.022902 
L 466.940796 335.47218 
L 470.201357 335.884173 
L 474.548772 336.154648 
L 481.069894 336.299277 
L 497.372699 336.347846 
L 673.443 336.349091 
L 673.443 336.349091 
" style="fill:none;stroke:#d62728;stroke-linecap:square;stroke-width:3;"/>
   </g>
   <g id="line2d_22">
    <path clip-path="url(#p050d49b680)" d="M 131.103 34.530909 
L 333.25779 34.640898 
L 353.90801 34.844712 
L 363.689693 35.129231 
L 370.210816 35.504951 
L 375.645084 36.046308 
L 379.992499 36.740911 
L 383.25306 37.504568 
L 385.426768 38.178851 
L 387.600475 39.028951 
L 389.774182 40.104858 
L 391.94789 41.471356 
L 394.121597 43.212241 
L 396.295305 45.43546 
L 398.469012 48.279098 
L 399.555866 49.986559 
L 400.642719 51.917836 
L 401.729573 54.10147 
L 402.816427 56.56893 
L 403.903281 59.35463 
L 404.990134 62.495816 
L 406.076988 66.032304 
L 407.163842 70.005985 
L 408.250695 74.460063 
L 409.337549 79.437961 
L 410.424403 84.981827 
L 412.59811 97.917727 
L 414.771818 113.495691 
L 416.945525 131.759675 
L 419.119232 152.472898 
L 422.379794 186.768758 
L 426.727208 233.20423 
L 428.900916 254.23269 
L 431.074623 272.680721 
L 433.248331 288.162166 
L 434.335184 294.771043 
L 435.422038 300.652808 
L 436.508892 305.845202 
L 437.595745 310.395102 
L 438.682599 314.355064 
L 439.769453 317.780351 
L 440.856307 320.726548 
L 441.94316 323.247736 
L 443.030014 325.395197 
L 444.116868 327.216569 
L 445.203721 328.755365 
L 446.290575 330.050782 
L 447.377429 331.137714 
L 448.464283 332.046924 
L 450.63799 333.436158 
L 452.811697 334.392913 
L 454.985405 335.04562 
L 457.159112 335.487033 
L 460.419673 335.891729 
L 464.767088 336.157486 
L 471.28821 336.2998 
L 487.591016 336.347836 
L 673.443 336.349091 
L 673.443 336.349091 
" style="fill:none;stroke:#d62728;stroke-linecap:square;stroke-width:3;"/>
   </g>
   <g id="line2d_23">
    <path clip-path="url(#p050d49b680)" d="M 131.103 34.530909 
L 333.25779 34.638217 
L 356.081717 34.815601 
L 366.950255 35.083704 
L 374.55823 35.487997 
L 379.992499 36.011603 
L 384.339914 36.687785 
L 387.600475 37.436407 
L 389.774182 38.101464 
L 391.94789 38.944749 
L 394.121597 40.018864 
L 396.295305 41.392715 
L 398.469012 43.156447 
L 400.642719 45.427554 
L 401.729573 46.799336 
L 402.816427 48.35814 
L 403.903281 50.129702 
L 404.990134 52.142915 
L 406.076988 54.430027 
L 407.163842 57.026771 
L 408.250695 59.972392 
L 409.337549 63.309517 
L 410.424403 67.083808 
L 411.511257 71.343333 
L 412.59811 76.137565 
L 413.684964 81.515932 
L 414.771818 87.525845 
L 415.858671 94.210148 
L 418.032379 109.731194 
L 420.206086 128.200296 
L 422.379794 149.431816 
L 425.640355 185.058003 
L 429.98777 233.696902 
L 432.161477 255.644183 
L 434.335184 274.727789 
L 436.508892 290.533326 
L 437.595745 297.197652 
L 438.682599 303.075019 
L 439.769453 308.213323 
L 440.856307 312.669886 
L 441.94316 316.507285 
L 443.030014 319.78991 
L 444.116868 322.581283 
L 445.203721 324.942116 
L 446.290575 326.929016 
L 447.377429 328.593719 
L 448.464283 329.982747 
L 449.551136 331.13737 
L 450.63799 332.093784 
L 451.724844 332.883431 
L 453.898551 334.066838 
L 456.072259 334.859869 
L 458.245966 335.385836 
L 461.506527 335.855918 
L 465.853942 336.152867 
L 472.375064 336.302769 
L 488.67787 336.348182 
L 673.443 336.349091 
L 673.443 336.349091 
" style="fill:none;stroke:#d62728;stroke-linecap:square;stroke-width:3;"/>
   </g>
   <g id="line2d_24">
    <path clip-path="url(#p050d49b680)" d="M 131.103 34.530909 
L 333.25779 34.641454 
L 352.821156 34.835 
L 362.60284 35.113889 
L 369.123962 35.483786 
L 374.55823 36.01866 
L 378.905645 36.707065 
L 382.166206 37.465803 
L 384.339914 38.136974 
L 386.513621 38.984443 
L 388.687329 40.058687 
L 390.861036 41.425216 
L 393.034743 43.168899 
L 395.208451 45.399226 
L 396.295305 46.739328 
L 397.382158 48.256454 
L 398.469012 49.974034 
L 399.555866 51.918237 
L 400.642719 54.118127 
L 401.729573 56.605757 
L 402.816427 59.41619 
L 403.903281 62.587374 
L 404.990134 66.159865 
L 406.076988 70.176309 
L 407.163842 74.680645 
L 408.250695 79.716959 
L 409.337549 85.327926 
L 410.424403 91.552812 
L 412.59811 105.969177 
L 414.771818 123.108937 
L 416.945525 142.87208 
L 419.119232 164.828904 
L 426.727208 245.52923 
L 428.900916 265.236457 
L 431.074623 282.063857 
L 432.161477 289.331076 
L 433.248331 295.842345 
L 434.335184 301.625452 
L 435.422038 306.72066 
L 436.508892 311.17686 
L 437.595745 315.048104 
L 438.682599 318.390685 
L 439.769453 321.260803 
L 440.856307 323.712817 
L 441.94316 325.798015 
L 443.030014 327.56384 
L 444.116868 329.053469 
L 445.203721 330.305667 
L 446.290575 331.354846 
L 447.377429 332.231259 
L 449.551136 333.567754 
L 451.724844 334.485777 
L 453.898551 335.110461 
L 456.072259 335.531863 
L 459.33282 335.917058 
L 463.680234 336.16896 
L 471.28821 336.312671 
L 491.938431 336.348783 
L 673.443 336.349091 
L 673.443 336.349091 
" style="fill:none;stroke:#d62728;stroke-linecap:square;stroke-width:3;"/>
   </g>
   <g id="line2d_25"/>
   <g id="line2d_26">
    <path clip-path="url(#p050d49b680)" d="M 131.103 34.53385 
L 210.443321 34.645567 
L 220.225004 34.870369 
L 225.659273 35.214729 
L 228.919834 35.608237 
L 231.093541 36.010712 
L 233.267248 36.586987 
L 235.440956 37.420174 
L 237.614663 38.63592 
L 238.701517 39.443398 
L 239.788371 40.424566 
L 240.875224 41.618679 
L 241.962078 43.073838 
L 243.048932 44.84875 
L 244.135786 47.014676 
L 245.222639 49.657441 
L 246.309493 52.879315 
L 247.396347 56.800391 
L 248.4832 61.558914 
L 249.570054 67.309709 
L 250.656908 74.219602 
L 251.743762 82.458492 
L 252.830615 92.184756 
L 253.917469 103.524163 
L 255.004323 116.542821 
L 256.091176 131.21691 
L 258.264884 164.830754 
L 262.612299 237.526811 
L 264.786006 268.473349 
L 265.87286 281.345524 
L 266.959713 292.364631 
L 268.046567 301.592871 
L 269.133421 309.174181 
L 270.220275 315.299647 
L 271.307128 320.178508 
L 272.393982 324.0171 
L 273.480836 327.005636 
L 274.567689 329.311373 
L 275.654543 331.076364 
L 276.741397 332.418116 
L 277.828251 333.431861 
L 278.915104 334.193541 
L 280.001958 334.762925 
L 282.175665 335.500327 
L 284.349373 335.90175 
L 287.609934 336.182571 
L 293.044202 336.319244 
L 309.347008 336.348991 
L 673.443 336.349091 
L 673.443 336.349091 
" style="fill:none;stroke:#2ca02c;stroke-linecap:square;stroke-width:3;"/>
   </g>
   <g id="line2d_27">
    <path clip-path="url(#p050d49b680)" d="M 131.103 34.533574 
L 209.356467 34.647027 
L 218.051297 34.841653 
L 223.485565 35.161534 
L 226.746126 35.529656 
L 230.006687 36.155232 
L 232.180395 36.810475 
L 234.354102 37.767072 
L 235.440956 38.402995 
L 236.52781 39.176454 
L 237.614663 40.119008 
L 238.701517 41.269577 
L 239.788371 42.676043 
L 240.875224 44.397112 
L 241.962078 46.50437 
L 243.048932 49.084471 
L 244.135786 52.241219 
L 245.222639 56.097212 
L 246.309493 60.794448 
L 247.396347 66.493028 
L 248.4832 73.366746 
L 249.570054 81.594114 
L 250.656908 91.343302 
L 251.743762 102.750009 
L 252.830615 115.888634 
L 253.917469 130.739622 
L 256.091176 164.860273 
L 260.438591 238.638767 
L 262.612299 269.805251 
L 263.699152 282.681461 
L 264.786006 293.647621 
L 265.87286 302.781461 
L 266.959713 310.242715 
L 268.046567 316.236301 
L 269.133421 320.982239 
L 270.220275 324.694392 
L 271.307128 327.567599 
L 272.393982 329.771446 
L 273.480836 331.448647 
L 274.567689 332.716272 
L 275.654543 333.668463 
L 276.741397 334.379742 
L 277.828251 334.908351 
L 280.001958 335.587223 
L 282.175665 335.952397 
L 285.436226 336.204182 
L 290.870495 336.323967 
L 309.347008 336.349058 
L 673.443 336.349091 
L 673.443 336.349091 
" style="fill:none;stroke:#2ca02c;stroke-linecap:square;stroke-width:3;"/>
   </g>
   <g id="line2d_28">
    <path clip-path="url(#p050d49b680)" d="M 131.103 34.533792 
L 208.269613 34.651041 
L 216.964443 34.850384 
L 222.398711 35.176742 
L 225.659273 35.551396 
L 228.919834 36.186839 
L 231.093541 36.851374 
L 233.267248 37.820285 
L 234.354102 38.463787 
L 235.440956 39.245955 
L 236.52781 40.198498 
L 237.614663 41.360495 
L 238.701517 42.77999 
L 239.788371 44.515835 
L 240.875224 46.639745 
L 241.962078 49.238446 
L 243.048932 52.415729 
L 244.135786 56.29405 
L 245.222639 61.015071 
L 246.309493 66.738294 
L 247.396347 73.636587 
L 248.4832 81.887146 
L 249.570054 91.656426 
L 250.656908 103.078076 
L 251.743762 116.224299 
L 252.830615 131.073523 
L 255.004323 165.15806 
L 259.351737 238.771981 
L 261.525445 269.861528 
L 262.612299 282.709588 
L 263.699152 293.655031 
L 264.786006 302.774871 
L 265.87286 310.227653 
L 266.959713 316.21697 
L 268.046567 320.961597 
L 269.133421 324.674356 
L 270.220275 327.549285 
L 271.307128 329.755393 
L 272.393982 331.43501 
L 273.480836 332.704969 
L 274.567689 333.659281 
L 275.654543 334.372406 
L 276.741397 334.902573 
L 278.915104 335.583767 
L 281.088812 335.950412 
L 284.349373 336.203371 
L 289.783641 336.32381 
L 308.260154 336.349058 
L 673.443 336.349091 
L 673.443 336.349091 
" style="fill:none;stroke:#2ca02c;stroke-linecap:square;stroke-width:3;"/>
   </g>
   <g id="line2d_29">
    <path clip-path="url(#p050d49b680)" d="M 131.103 34.534126 
L 211.530174 34.646967 
L 221.311858 34.855403 
L 226.746126 35.158537 
L 231.093541 35.645838 
L 234.354102 36.294303 
L 236.52781 36.955986 
L 238.701517 37.900081 
L 240.875224 39.257966 
L 241.962078 40.149819 
L 243.048932 41.224753 
L 244.135786 42.52199 
L 245.222639 44.089015 
L 246.309493 45.983067 
L 247.396347 48.272707 
L 248.4832 51.039378 
L 249.570054 54.378718 
L 250.656908 58.401334 
L 251.743762 63.232526 
L 252.830615 69.01029 
L 253.917469 75.880731 
L 255.004323 83.989898 
L 256.091176 93.471154 
L 257.17803 104.427646 
L 258.264884 116.910471 
L 260.438591 146.258142 
L 262.612299 180.07847 
L 265.87286 232.298191 
L 268.046567 262.824419 
L 269.133421 275.826938 
L 270.220275 287.153728 
L 271.307128 296.815098 
L 272.393982 304.903183 
L 273.480836 311.564004 
L 274.567689 316.97178 
L 275.654543 321.308471 
L 276.741397 324.749442 
L 277.828251 327.454722 
L 278.915104 329.564685 
L 280.001958 331.198863 
L 281.088812 332.456731 
L 282.175665 333.419587 
L 283.262519 334.152919 
L 284.349373 334.708861 
L 286.52308 335.443983 
L 288.696788 335.856484 
L 291.957349 336.15619 
L 297.391617 336.311218 
L 311.520715 336.348715 
L 673.443 336.349091 
L 673.443 336.349091 
" style="fill:none;stroke:#2ca02c;stroke-linecap:square;stroke-width:3;"/>
   </g>
   <g id="line2d_30">
    <path clip-path="url(#p050d49b680)" d="M 131.103 34.533459 
L 208.269613 34.647237 
L 216.964443 34.84253 
L 222.398711 35.164768 
L 225.659273 35.536871 
L 228.919834 36.171302 
L 231.093541 36.837835 
L 233.267248 37.813592 
L 234.354102 38.463625 
L 235.440956 39.255445 
L 236.52781 40.221872 
L 237.614663 41.403446 
L 238.701517 42.850117 
L 239.788371 44.623202 
L 240.875224 46.797557 
L 241.962078 49.463849 
L 243.048932 52.730711 
L 244.135786 56.726364 
L 245.222639 61.599068 
L 246.309493 67.515411 
L 247.396347 74.655145 
L 248.4832 83.200965 
L 249.570054 93.321671 
L 250.656908 105.147824 
L 251.743762 118.740645 
L 253.917469 150.923085 
L 257.17803 206.881905 
L 259.351737 243.095955 
L 260.438591 259.244745 
L 261.525445 273.617667 
L 262.612299 286.062537 
L 263.699152 296.574378 
L 264.786006 305.261566 
L 265.87286 312.30584 
L 266.959713 317.925452 
L 268.046567 322.346438 
L 269.133421 325.783296 
L 270.220275 328.427997 
L 271.307128 330.445313 
L 272.393982 331.972334 
L 273.480836 333.120433 
L 274.567689 333.978424 
L 275.654543 334.616089 
L 276.741397 335.087599 
L 278.915104 335.688789 
L 281.088812 336.008879 
L 284.349373 336.226843 
L 290.870495 336.334843 
L 321.302399 336.349091 
L 673.443 336.349091 
L 673.443 336.349091 
" style="fill:none;stroke:#2ca02c;stroke-linecap:square;stroke-width:3;"/>
   </g>
   <g id="line2d_31">
    <path clip-path="url(#p050d49b680)" d="M 131.103 34.53344 
L 210.443321 34.655149 
L 219.13815 34.8714 
L 224.572419 35.233975 
L 227.83298 35.656998 
L 230.006687 36.095895 
L 232.180395 36.732108 
L 234.354102 37.663722 
L 235.440956 38.2845 
L 236.52781 39.040845 
L 237.614663 39.964211 
L 238.701517 41.093489 
L 239.788371 42.476658 
L 240.875224 44.172703 
L 241.962078 46.253773 
L 243.048932 48.807472 
L 244.135786 51.939094 
L 245.222639 55.773426 
L 246.309493 60.455525 
L 247.396347 66.149559 
L 248.4832 73.034433 
L 249.570054 81.294653 
L 250.656908 91.104777 
L 251.743762 102.606351 
L 252.830615 115.877647 
L 253.917469 130.899219 
L 256.091176 165.446836 
L 260.438591 239.947556 
L 261.525445 256.42424 
L 262.612299 271.162635 
L 263.699152 283.980862 
L 264.786006 294.849917 
L 265.87286 303.861783 
L 266.959713 311.18934 
L 268.046567 317.048125 
L 269.133421 321.665757 
L 270.220275 325.26086 
L 271.307128 328.030701 
L 272.393982 330.145573 
L 273.480836 331.747754 
L 274.567689 332.953193 
L 275.654543 333.854564 
L 276.741397 334.524815 
L 277.828251 335.020649 
L 280.001958 335.653227 
L 282.175665 335.990289 
L 285.436226 336.220013 
L 290.870495 336.327314 
L 311.520715 336.34908 
L 673.443 336.349091 
L 673.443 336.349091 
" style="fill:none;stroke:#2ca02c;stroke-linecap:square;stroke-width:3;"/>
   </g>
   <g id="line2d_32">
    <path clip-path="url(#p050d49b680)" d="M 131.103 34.532744 
L 208.269613 34.644609 
L 218.051297 34.874518 
L 223.485565 35.231618 
L 226.746126 35.643511 
L 228.919834 36.067498 
L 231.093541 36.677923 
L 233.267248 37.56551 
L 235.440956 38.868154 
L 236.52781 39.73701 
L 237.614663 40.795806 
L 238.701517 42.088053 
L 239.788371 43.667136 
L 240.875224 45.598263 
L 241.962078 47.960572 
L 243.048932 50.849255 
L 244.135786 54.377411 
L 245.222639 58.677169 
L 246.309493 63.899359 
L 247.396347 70.210685 
L 248.4832 77.787091 
L 249.570054 86.801805 
L 250.656908 97.406783 
L 251.743762 109.707187 
L 252.830615 123.730463 
L 255.004323 156.482547 
L 260.438591 247.33609 
L 261.525445 262.880718 
L 262.612299 276.641793 
L 263.699152 288.507975 
L 264.786006 298.501975 
L 265.87286 306.746433 
L 266.959713 313.426277 
L 268.046567 318.755274 
L 269.133421 322.950625 
L 270.220275 326.216247 
L 271.307128 328.733542 
L 272.393982 330.657709 
L 273.480836 332.117704 
L 274.567689 333.218294 
L 275.654543 334.043099 
L 276.741397 334.657925 
L 278.915104 335.450646 
L 281.088812 335.879242 
L 284.349373 336.176401 
L 289.783641 336.318867 
L 306.086447 336.348998 
L 673.443 336.349091 
L 673.443 336.349091 
" style="fill:none;stroke:#2ca02c;stroke-linecap:square;stroke-width:3;"/>
   </g>
   <g id="line2d_33">
    <path clip-path="url(#p050d49b680)" d="M 131.103 34.533898 
L 209.356467 34.653523 
L 218.051297 34.85231 
L 223.485565 35.172972 
L 226.746126 35.53713 
L 230.006687 36.148954 
L 232.180395 36.783596 
L 234.354102 37.702428 
L 235.440956 38.309476 
L 236.52781 39.044636 
L 237.614663 39.936643 
L 238.701517 41.020799 
L 239.788371 42.340392 
L 240.875224 43.948329 
L 241.962078 45.908981 
L 243.048932 48.300152 
L 244.135786 51.21502 
L 245.222639 54.763806 
L 246.309493 59.074683 
L 247.396347 64.293277 
L 248.4832 70.579793 
L 249.570054 78.102532 
L 250.656908 87.026473 
L 251.743762 97.49578 
L 252.830615 109.609961 
L 253.917469 123.395147 
L 256.091176 155.545199 
L 262.612299 260.724787 
L 263.699152 274.551607 
L 264.786006 286.549051 
L 265.87286 296.719635 
L 266.959713 305.165873 
L 268.046567 312.055358 
L 269.133421 317.588632 
L 270.220275 321.973965 
L 271.307128 325.410122 
L 272.393982 328.076303 
L 273.480836 330.127595 
L 274.567689 331.694179 
L 275.654543 332.882797 
L 276.741397 333.779376 
L 277.828251 334.452082 
L 278.915104 334.954345 
L 281.088812 335.603864 
L 283.262519 335.956828 
L 286.52308 336.203324 
L 291.957349 336.323028 
L 310.433862 336.349053 
L 673.443 336.349091 
L 673.443 336.349091 
" style="fill:none;stroke:#2ca02c;stroke-linecap:square;stroke-width:3;"/>
   </g>
   <g id="line2d_34">
    <path clip-path="url(#p050d49b680)" d="M 131.103 34.532624 
L 208.269613 34.648678 
L 216.964443 34.881325 
L 221.311858 35.18059 
L 224.572419 35.597065 
L 226.746126 36.037305 
L 228.919834 36.685581 
L 231.093541 37.65014 
L 232.180395 38.300418 
L 233.267248 39.09912 
L 234.354102 40.082075 
L 235.440956 41.293875 
L 236.52781 42.789877 
L 237.614663 44.638507 
L 238.701517 46.923832 
L 239.788371 49.748235 
L 240.875224 53.234894 
L 241.962078 57.529509 
L 243.048932 62.800415 
L 244.135786 69.235759 
L 245.222639 77.03602 
L 246.309493 86.399843 
L 247.396347 97.501423 
L 248.4832 110.45886 
L 249.570054 125.29564 
L 251.743762 160.003294 
L 257.17803 254.03799 
L 258.264884 269.443612 
L 259.351737 282.830802 
L 260.438591 294.154125 
L 261.525445 303.506451 
L 262.612299 311.073141 
L 263.699152 317.087972 
L 264.786006 321.798015 
L 265.87286 325.439697 
L 266.959713 328.22508 
L 268.046567 330.335899 
L 269.133421 331.922774 
L 270.220275 333.107423 
L 271.307128 333.986292 
L 272.393982 334.634635 
L 273.480836 335.110437 
L 275.654543 335.710534 
L 277.828251 336.025127 
L 281.088812 336.235394 
L 287.609934 336.336468 
L 321.302399 336.349091 
L 673.443 336.349091 
L 673.443 336.349091 
" style="fill:none;stroke:#2ca02c;stroke-linecap:square;stroke-width:3;"/>
   </g>
   <g id="line2d_35">
    <path clip-path="url(#p050d49b680)" d="M 131.103 34.534145 
L 210.443321 34.655941 
L 220.225004 34.885019 
L 225.659273 35.221952 
L 228.919834 35.596407 
L 232.180395 36.213733 
L 234.354102 36.843656 
L 236.52781 37.742711 
L 238.701517 39.036602 
L 239.788371 39.886977 
L 240.875224 40.912512 
L 241.962078 42.15099 
L 243.048932 43.648264 
L 244.135786 45.45975 
L 245.222639 47.652044 
L 246.309493 50.304547 
L 247.396347 53.510929 
L 248.4832 57.38012 
L 249.570054 62.036363 
L 250.656908 67.617683 
L 251.743762 74.271887 
L 252.830615 82.149089 
L 253.917469 91.389775 
L 255.004323 102.107778 
L 256.091176 114.368512 
L 257.17803 128.164368 
L 259.351737 159.832846 
L 264.786006 246.132525 
L 265.87286 261.024248 
L 266.959713 274.335161 
L 268.046567 285.951147 
L 269.133421 295.870511 
L 270.220275 304.179235 
L 271.307128 311.022044 
L 272.393982 316.57529 
L 273.480836 321.025093 
L 274.567689 324.551853 
L 275.654543 327.320714 
L 276.741397 329.476763 
L 277.828251 331.143606 
L 278.915104 332.424077 
L 280.001958 333.402158 
L 281.088812 334.145414 
L 282.175665 334.70755 
L 284.349373 335.448219 
L 286.52308 335.861639 
L 289.783641 336.159989 
L 295.21791 336.3126 
L 310.433862 336.348857 
L 673.443 336.349091 
L 673.443 336.349091 
" style="fill:none;stroke:#2ca02c;stroke-linecap:square;stroke-width:3;"/>
   </g>
   <g id="patch_3">
    <path d="M 103.986 351.44 
L 103.986 19.44 
" style="fill:none;stroke:#000000;stroke-linecap:square;stroke-linejoin:miter;stroke-width:3;"/>
   </g>
   <g id="patch_4">
    <path d="M 700.56 351.44 
L 700.56 19.44 
" style="fill:none;stroke:#000000;stroke-linecap:square;stroke-linejoin:miter;stroke-width:3;"/>
   </g>
   <g id="patch_5">
    <path d="M 103.986 351.44 
L 700.56 351.44 
" style="fill:none;stroke:#000000;stroke-linecap:square;stroke-linejoin:miter;stroke-width:3;"/>
   </g>
   <g id="patch_6">
    <path d="M 103.986 19.44 
L 700.56 19.44 
" style="fill:none;stroke:#000000;stroke-linecap:square;stroke-linejoin:miter;stroke-width:3;"/>
   </g>
   <g id="legend_1">
    <g id="patch_7">
     <path d="M 510.795 109.095 
L 683.76 109.095 
Q 688.56 109.095 688.56 104.295 
L 688.56 36.24 
Q 688.56 31.44 683.76 31.44 
L 510.795 31.44 
Q 505.995 31.44 505.995 36.24 
L 505.995 104.295 
Q 505.995 109.095 510.795 109.095 
z
" style="fill:#ffffff;opacity:0.8;stroke:#cccccc;stroke-linejoin:miter;stroke-width:0.5;"/>
    </g>
    <g id="line2d_36">
     <path d="M 515.595 50.87625 
L 563.595 50.87625 
" style="fill:none;stroke:#d62728;stroke-linecap:square;stroke-width:3;"/>
    </g>
    <g id="line2d_37"/>
    <g id="text_15">
     <!-- Au(211) -->
     <defs>
      <path d="M 34.1875 63.1875 
L 20.796875 26.90625 
L 47.609375 26.90625 
z
M 28.609375 72.90625 
L 39.796875 72.90625 
L 67.578125 0 
L 57.328125 0 
L 50.6875 18.703125 
L 17.828125 18.703125 
L 11.1875 0 
L 0.78125 0 
z
" id="DejaVuSans-65"/>
      <path d="M 31 75.875 
Q 24.46875 64.65625 21.28125 53.65625 
Q 18.109375 42.671875 18.109375 31.390625 
Q 18.109375 20.125 21.3125 9.0625 
Q 24.515625 -2 31 -13.1875 
L 23.1875 -13.1875 
Q 15.875 -1.703125 12.234375 9.375 
Q 8.59375 20.453125 8.59375 31.390625 
Q 8.59375 42.28125 12.203125 53.3125 
Q 15.828125 64.359375 23.1875 75.875 
z
" id="DejaVuSans-40"/>
      <path d="M 8.015625 75.875 
L 15.828125 75.875 
Q 23.140625 64.359375 26.78125 53.3125 
Q 30.421875 42.28125 30.421875 31.390625 
Q 30.421875 20.453125 26.78125 9.375 
Q 23.140625 -1.703125 15.828125 -13.1875 
L 8.015625 -13.1875 
Q 14.5 -2 17.703125 9.0625 
Q 20.90625 20.125 20.90625 31.390625 
Q 20.90625 42.671875 17.703125 53.65625 
Q 14.5 64.65625 8.015625 75.875 
z
" id="DejaVuSans-41"/>
     </defs>
     <g transform="translate(582.795 59.27625)scale(0.24 -0.24)">
      <use xlink:href="#DejaVuSans-65"/>
      <use x="68.408203" xlink:href="#DejaVuSans-117"/>
      <use x="131.787109" xlink:href="#DejaVuSans-40"/>
      <use x="170.800781" xlink:href="#DejaVuSans-50"/>
      <use x="234.423828" xlink:href="#DejaVuSans-49"/>
      <use x="298.046875" xlink:href="#DejaVuSans-49"/>
      <use x="361.669922" xlink:href="#DejaVuSans-41"/>
     </g>
    </g>
    <g id="line2d_38">
     <path d="M 515.595 86.10375 
L 563.595 86.10375 
" style="fill:none;stroke:#2ca02c;stroke-linecap:square;stroke-width:3;"/>
    </g>
    <g id="line2d_39"/>
    <g id="text_16">
     <!-- Au(111) -->
     <g transform="translate(582.795 94.50375)scale(0.24 -0.24)">
      <use xlink:href="#DejaVuSans-65"/>
      <use x="68.408203" xlink:href="#DejaVuSans-117"/>
      <use x="131.787109" xlink:href="#DejaVuSans-40"/>
      <use x="170.800781" xlink:href="#DejaVuSans-49"/>
      <use x="234.423828" xlink:href="#DejaVuSans-49"/>
      <use x="298.046875" xlink:href="#DejaVuSans-49"/>
      <use x="361.669922" xlink:href="#DejaVuSans-41"/>
     </g>
    </g>
   </g>
  </g>
 </g>
 <defs>
  <clipPath id="p050d49b680">
   <rect height="332" width="596.574" x="103.986" y="19.44"/>
  </clipPath>
 </defs>
</svg>
