<?xml version="1.0" encoding="utf-8" standalone="no"?>
<!DOCTYPE svg PUBLIC "-//W3C//DTD SVG 1.1//EN"
  "http://www.w3.org/Graphics/SVG/1.1/DTD/svg11.dtd">
<!-- Created with matplotlib (https://matplotlib.org/) -->
<svg height="576pt" version="1.1" viewBox="0 0 792 576" width="792pt" xmlns="http://www.w3.org/2000/svg" xmlns:xlink="http://www.w3.org/1999/xlink">
 <defs>
  <style type="text/css">
*{stroke-linecap:butt;stroke-linejoin:round;}
  </style>
 </defs>
 <g id="figure_1">
  <g id="patch_1">
   <path d="M 0 576 
L 792 576 
L 792 0 
L 0 0 
z
" style="fill:#ffffff;"/>
  </g>
  <g id="axes_1">
   <g id="patch_2">
    <path d="M 99 512.64 
L 712.8 512.64 
L 712.8 69.12 
L 99 69.12 
z
" style="fill:#ffffff;"/>
   </g>
   <g id="matplotlib.axis_1">
    <g id="xtick_1">
     <g id="line2d_1">
      <defs>
       <path d="M 0 0 
L 0 -8 
" id="mbf65c09378" style="stroke:#555555;stroke-width:0.8;"/>
      </defs>
      <g>
       <use style="fill:#555555;stroke:#555555;stroke-width:0.8;" x="161.845706" xlink:href="#mbf65c09378" y="512.64"/>
      </g>
     </g>
     <g id="text_1">
      <!-- 0 -->
      <defs>
       <path d="M 31.78125 66.40625 
Q 24.171875 66.40625 20.328125 58.90625 
Q 16.5 51.421875 16.5 36.375 
Q 16.5 21.390625 20.328125 13.890625 
Q 24.171875 6.390625 31.78125 6.390625 
Q 39.453125 6.390625 43.28125 13.890625 
Q 47.125 21.390625 47.125 36.375 
Q 47.125 51.421875 43.28125 58.90625 
Q 39.453125 66.40625 31.78125 66.40625 
z
M 31.78125 74.21875 
Q 44.046875 74.21875 50.515625 64.515625 
Q 56.984375 54.828125 56.984375 36.375 
Q 56.984375 17.96875 50.515625 8.265625 
Q 44.046875 -1.421875 31.78125 -1.421875 
Q 19.53125 -1.421875 13.0625 8.265625 
Q 6.59375 17.96875 6.59375 36.375 
Q 6.59375 54.828125 13.0625 64.515625 
Q 19.53125 74.21875 31.78125 74.21875 
z
" id="DejaVuSans-48"/>
      </defs>
      <g style="fill:#555555;" transform="translate(155.483206 533.836875)scale(0.2 -0.2)">
       <use xlink:href="#DejaVuSans-48"/>
      </g>
     </g>
    </g>
    <g id="xtick_2">
     <g id="line2d_2">
      <g>
       <use style="fill:#555555;stroke:#555555;stroke-width:0.8;" x="297.642111" xlink:href="#mbf65c09378" y="512.64"/>
      </g>
     </g>
     <g id="text_2">
      <!-- 1 -->
      <defs>
       <path d="M 12.40625 8.296875 
L 28.515625 8.296875 
L 28.515625 63.921875 
L 10.984375 60.40625 
L 10.984375 69.390625 
L 28.421875 72.90625 
L 38.28125 72.90625 
L 38.28125 8.296875 
L 54.390625 8.296875 
L 54.390625 0 
L 12.40625 0 
z
" id="DejaVuSans-49"/>
      </defs>
      <g style="fill:#555555;" transform="translate(291.279611 533.836875)scale(0.2 -0.2)">
       <use xlink:href="#DejaVuSans-49"/>
      </g>
     </g>
    </g>
    <g id="xtick_3">
     <g id="line2d_3">
      <g>
       <use style="fill:#555555;stroke:#555555;stroke-width:0.8;" x="433.438516" xlink:href="#mbf65c09378" y="512.64"/>
      </g>
     </g>
     <g id="text_3">
      <!-- 2 -->
      <defs>
       <path d="M 19.1875 8.296875 
L 53.609375 8.296875 
L 53.609375 0 
L 7.328125 0 
L 7.328125 8.296875 
Q 12.9375 14.109375 22.625 23.890625 
Q 32.328125 33.6875 34.8125 36.53125 
Q 39.546875 41.84375 41.421875 45.53125 
Q 43.3125 49.21875 43.3125 52.78125 
Q 43.3125 58.59375 39.234375 62.25 
Q 35.15625 65.921875 28.609375 65.921875 
Q 23.96875 65.921875 18.8125 64.3125 
Q 13.671875 62.703125 7.8125 59.421875 
L 7.8125 69.390625 
Q 13.765625 71.78125 18.9375 73 
Q 24.125 74.21875 28.421875 74.21875 
Q 39.75 74.21875 46.484375 68.546875 
Q 53.21875 62.890625 53.21875 53.421875 
Q 53.21875 48.921875 51.53125 44.890625 
Q 49.859375 40.875 45.40625 35.40625 
Q 44.1875 33.984375 37.640625 27.21875 
Q 31.109375 20.453125 19.1875 8.296875 
z
" id="DejaVuSans-50"/>
      </defs>
      <g style="fill:#555555;" transform="translate(427.076016 533.836875)scale(0.2 -0.2)">
       <use xlink:href="#DejaVuSans-50"/>
      </g>
     </g>
    </g>
    <g id="xtick_4">
     <g id="line2d_4">
      <g>
       <use style="fill:#555555;stroke:#555555;stroke-width:0.8;" x="569.234921" xlink:href="#mbf65c09378" y="512.64"/>
      </g>
     </g>
     <g id="text_4">
      <!-- 3 -->
      <defs>
       <path d="M 40.578125 39.3125 
Q 47.65625 37.796875 51.625 33 
Q 55.609375 28.21875 55.609375 21.1875 
Q 55.609375 10.40625 48.1875 4.484375 
Q 40.765625 -1.421875 27.09375 -1.421875 
Q 22.515625 -1.421875 17.65625 -0.515625 
Q 12.796875 0.390625 7.625 2.203125 
L 7.625 11.71875 
Q 11.71875 9.328125 16.59375 8.109375 
Q 21.484375 6.890625 26.8125 6.890625 
Q 36.078125 6.890625 40.9375 10.546875 
Q 45.796875 14.203125 45.796875 21.1875 
Q 45.796875 27.640625 41.28125 31.265625 
Q 36.765625 34.90625 28.71875 34.90625 
L 20.21875 34.90625 
L 20.21875 43.015625 
L 29.109375 43.015625 
Q 36.375 43.015625 40.234375 45.921875 
Q 44.09375 48.828125 44.09375 54.296875 
Q 44.09375 59.90625 40.109375 62.90625 
Q 36.140625 65.921875 28.71875 65.921875 
Q 24.65625 65.921875 20.015625 65.03125 
Q 15.375 64.15625 9.8125 62.3125 
L 9.8125 71.09375 
Q 15.4375 72.65625 20.34375 73.4375 
Q 25.25 74.21875 29.59375 74.21875 
Q 40.828125 74.21875 47.359375 69.109375 
Q 53.90625 64.015625 53.90625 55.328125 
Q 53.90625 49.265625 50.4375 45.09375 
Q 46.96875 40.921875 40.578125 39.3125 
z
" id="DejaVuSans-51"/>
      </defs>
      <g style="fill:#555555;" transform="translate(562.872421 533.836875)scale(0.2 -0.2)">
       <use xlink:href="#DejaVuSans-51"/>
      </g>
     </g>
    </g>
    <g id="xtick_5">
     <g id="line2d_5">
      <g>
       <use style="fill:#555555;stroke:#555555;stroke-width:0.8;" x="705.031326" xlink:href="#mbf65c09378" y="512.64"/>
      </g>
     </g>
     <g id="text_5">
      <!-- 4 -->
      <defs>
       <path d="M 37.796875 64.3125 
L 12.890625 25.390625 
L 37.796875 25.390625 
z
M 35.203125 72.90625 
L 47.609375 72.90625 
L 47.609375 25.390625 
L 58.015625 25.390625 
L 58.015625 17.1875 
L 47.609375 17.1875 
L 47.609375 0 
L 37.796875 0 
L 37.796875 17.1875 
L 4.890625 17.1875 
L 4.890625 26.703125 
z
" id="DejaVuSans-52"/>
      </defs>
      <g style="fill:#555555;" transform="translate(698.668826 533.836875)scale(0.2 -0.2)">
       <use xlink:href="#DejaVuSans-52"/>
      </g>
     </g>
    </g>
    <g id="text_6">
     <!-- path [$\AA$] -->
     <defs>
      <path d="M 18.109375 8.203125 
L 18.109375 -20.796875 
L 9.078125 -20.796875 
L 9.078125 54.6875 
L 18.109375 54.6875 
L 18.109375 46.390625 
Q 20.953125 51.265625 25.265625 53.625 
Q 29.59375 56 35.59375 56 
Q 45.5625 56 51.78125 48.09375 
Q 58.015625 40.1875 58.015625 27.296875 
Q 58.015625 14.40625 51.78125 6.484375 
Q 45.5625 -1.421875 35.59375 -1.421875 
Q 29.59375 -1.421875 25.265625 0.953125 
Q 20.953125 3.328125 18.109375 8.203125 
z
M 48.6875 27.296875 
Q 48.6875 37.203125 44.609375 42.84375 
Q 40.53125 48.484375 33.40625 48.484375 
Q 26.265625 48.484375 22.1875 42.84375 
Q 18.109375 37.203125 18.109375 27.296875 
Q 18.109375 17.390625 22.1875 11.75 
Q 26.265625 6.109375 33.40625 6.109375 
Q 40.53125 6.109375 44.609375 11.75 
Q 48.6875 17.390625 48.6875 27.296875 
z
" id="DejaVuSans-112"/>
      <path d="M 34.28125 27.484375 
Q 23.390625 27.484375 19.1875 25 
Q 14.984375 22.515625 14.984375 16.5 
Q 14.984375 11.71875 18.140625 8.90625 
Q 21.296875 6.109375 26.703125 6.109375 
Q 34.1875 6.109375 38.703125 11.40625 
Q 43.21875 16.703125 43.21875 25.484375 
L 43.21875 27.484375 
z
M 52.203125 31.203125 
L 52.203125 0 
L 43.21875 0 
L 43.21875 8.296875 
Q 40.140625 3.328125 35.546875 0.953125 
Q 30.953125 -1.421875 24.3125 -1.421875 
Q 15.921875 -1.421875 10.953125 3.296875 
Q 6 8.015625 6 15.921875 
Q 6 25.140625 12.171875 29.828125 
Q 18.359375 34.515625 30.609375 34.515625 
L 43.21875 34.515625 
L 43.21875 35.40625 
Q 43.21875 41.609375 39.140625 45 
Q 35.0625 48.390625 27.6875 48.390625 
Q 23 48.390625 18.546875 47.265625 
Q 14.109375 46.140625 10.015625 43.890625 
L 10.015625 52.203125 
Q 14.9375 54.109375 19.578125 55.046875 
Q 24.21875 56 28.609375 56 
Q 40.484375 56 46.34375 49.84375 
Q 52.203125 43.703125 52.203125 31.203125 
z
" id="DejaVuSans-97"/>
      <path d="M 18.3125 70.21875 
L 18.3125 54.6875 
L 36.8125 54.6875 
L 36.8125 47.703125 
L 18.3125 47.703125 
L 18.3125 18.015625 
Q 18.3125 11.328125 20.140625 9.421875 
Q 21.96875 7.515625 27.59375 7.515625 
L 36.8125 7.515625 
L 36.8125 0 
L 27.59375 0 
Q 17.1875 0 13.234375 3.875 
Q 9.28125 7.765625 9.28125 18.015625 
L 9.28125 47.703125 
L 2.6875 47.703125 
L 2.6875 54.6875 
L 9.28125 54.6875 
L 9.28125 70.21875 
z
" id="DejaVuSans-116"/>
      <path d="M 54.890625 33.015625 
L 54.890625 0 
L 45.90625 0 
L 45.90625 32.71875 
Q 45.90625 40.484375 42.875 44.328125 
Q 39.84375 48.1875 33.796875 48.1875 
Q 26.515625 48.1875 22.3125 43.546875 
Q 18.109375 38.921875 18.109375 30.90625 
L 18.109375 0 
L 9.078125 0 
L 9.078125 75.984375 
L 18.109375 75.984375 
L 18.109375 46.1875 
Q 21.34375 51.125 25.703125 53.5625 
Q 30.078125 56 35.796875 56 
Q 45.21875 56 50.046875 50.171875 
Q 54.890625 44.34375 54.890625 33.015625 
z
" id="DejaVuSans-104"/>
      <path id="DejaVuSans-32"/>
      <path d="M 8.59375 75.984375 
L 29.296875 75.984375 
L 29.296875 69 
L 17.578125 69 
L 17.578125 -6.203125 
L 29.296875 -6.203125 
L 29.296875 -13.1875 
L 8.59375 -13.1875 
z
" id="DejaVuSans-91"/>
      <path d="M 49.8125 79.390625 
Q 49.8125 82.46875 47.625 84.640625 
Q 45.453125 86.8125 42.390625 86.8125 
Q 39.265625 86.8125 37.140625 84.6875 
Q 35.015625 82.5625 35.015625 79.390625 
Q 35.015625 76.3125 37.140625 74.15625 
Q 39.265625 72.015625 42.390625 72.015625 
Q 45.453125 72.015625 47.625 74.15625 
Q 49.8125 76.3125 49.8125 79.390625 
z
M 34.421875 68.703125 
Q 31.78125 70.515625 30.390625 73.265625 
Q 29 76.03125 29 79.390625 
Q 29 84.96875 32.90625 88.890625 
Q 36.8125 92.828125 42.390625 92.828125 
Q 47.953125 92.828125 51.875 88.890625 
Q 55.8125 84.96875 55.8125 79.390625 
Q 55.8125 75.53125 54.03125 72.546875 
Q 52.25 69.578125 48.875 67.828125 
L 61.53125 0 
L 51.21875 0 
L 48.1875 18.703125 
L 15.375 18.703125 
L 5.078125 0 
L -5.328125 0 
z
M 40.375 63.1875 
L 19.921875 26.90625 
L 46.6875 26.90625 
z
" id="DejaVuSans-Oblique-197"/>
      <path d="M 30.421875 75.984375 
L 30.421875 -13.1875 
L 9.71875 -13.1875 
L 9.71875 -6.203125 
L 21.390625 -6.203125 
L 21.390625 69 
L 9.71875 69 
L 9.71875 75.984375 
z
" id="DejaVuSans-93"/>
     </defs>
     <g style="fill:#555555;" transform="translate(357.18 564.31625)scale(0.24 -0.24)">
      <use transform="translate(0 0.171875)" xlink:href="#DejaVuSans-112"/>
      <use transform="translate(63.476562 0.171875)" xlink:href="#DejaVuSans-97"/>
      <use transform="translate(124.755859 0.171875)" xlink:href="#DejaVuSans-116"/>
      <use transform="translate(163.964844 0.171875)" xlink:href="#DejaVuSans-104"/>
      <use transform="translate(227.34375 0.171875)" xlink:href="#DejaVuSans-32"/>
      <use transform="translate(259.130859 0.171875)" xlink:href="#DejaVuSans-91"/>
      <use transform="translate(298.144531 0.171875)" xlink:href="#DejaVuSans-Oblique-197"/>
      <use transform="translate(366.552734 0.171875)" xlink:href="#DejaVuSans-93"/>
     </g>
    </g>
   </g>
   <g id="matplotlib.axis_2">
    <g id="ytick_1">
     <g id="line2d_6">
      <defs>
       <path d="M 0 0 
L 8 0 
" id="mabe17d6ff0" style="stroke:#555555;stroke-width:0.8;"/>
      </defs>
      <g>
       <use style="fill:#555555;stroke:#555555;stroke-width:0.8;" x="99" xlink:href="#mabe17d6ff0" y="468.327616"/>
      </g>
     </g>
     <g id="text_7">
      <!-- −0.1 -->
      <defs>
       <path d="M 10.59375 35.5 
L 73.1875 35.5 
L 73.1875 27.203125 
L 10.59375 27.203125 
z
" id="DejaVuSans-8722"/>
       <path d="M 10.6875 12.40625 
L 21 12.40625 
L 21 0 
L 10.6875 0 
z
" id="DejaVuSans-46"/>
      </defs>
      <g style="fill:#555555;" transform="translate(44.434375 475.926053)scale(0.2 -0.2)">
       <use xlink:href="#DejaVuSans-8722"/>
       <use x="83.789062" xlink:href="#DejaVuSans-48"/>
       <use x="147.412109" xlink:href="#DejaVuSans-46"/>
       <use x="179.199219" xlink:href="#DejaVuSans-49"/>
      </g>
     </g>
    </g>
    <g id="ytick_2">
     <g id="line2d_7">
      <g>
       <use style="fill:#555555;stroke:#555555;stroke-width:0.8;" x="99" xlink:href="#mabe17d6ff0" y="382.582149"/>
      </g>
     </g>
     <g id="text_8">
      <!-- 0.0 -->
      <g style="fill:#555555;" transform="translate(61.19375 390.180587)scale(0.2 -0.2)">
       <use xlink:href="#DejaVuSans-48"/>
       <use x="63.623047" xlink:href="#DejaVuSans-46"/>
       <use x="95.410156" xlink:href="#DejaVuSans-48"/>
      </g>
     </g>
    </g>
    <g id="ytick_3">
     <g id="line2d_8">
      <g>
       <use style="fill:#555555;stroke:#555555;stroke-width:0.8;" x="99" xlink:href="#mabe17d6ff0" y="296.836683"/>
      </g>
     </g>
     <g id="text_9">
      <!-- 0.1 -->
      <g style="fill:#555555;" transform="translate(61.19375 304.435121)scale(0.2 -0.2)">
       <use xlink:href="#DejaVuSans-48"/>
       <use x="63.623047" xlink:href="#DejaVuSans-46"/>
       <use x="95.410156" xlink:href="#DejaVuSans-49"/>
      </g>
     </g>
    </g>
    <g id="ytick_4">
     <g id="line2d_9">
      <g>
       <use style="fill:#555555;stroke:#555555;stroke-width:0.8;" x="99" xlink:href="#mabe17d6ff0" y="211.091217"/>
      </g>
     </g>
     <g id="text_10">
      <!-- 0.2 -->
      <g style="fill:#555555;" transform="translate(61.19375 218.689654)scale(0.2 -0.2)">
       <use xlink:href="#DejaVuSans-48"/>
       <use x="63.623047" xlink:href="#DejaVuSans-46"/>
       <use x="95.410156" xlink:href="#DejaVuSans-50"/>
      </g>
     </g>
    </g>
    <g id="ytick_5">
     <g id="line2d_10">
      <g>
       <use style="fill:#555555;stroke:#555555;stroke-width:0.8;" x="99" xlink:href="#mabe17d6ff0" y="125.345751"/>
      </g>
     </g>
     <g id="text_11">
      <!-- 0.3 -->
      <g style="fill:#555555;" transform="translate(61.19375 132.944188)scale(0.2 -0.2)">
       <use xlink:href="#DejaVuSans-48"/>
       <use x="63.623047" xlink:href="#DejaVuSans-46"/>
       <use x="95.410156" xlink:href="#DejaVuSans-51"/>
      </g>
     </g>
    </g>
    <g id="text_12">
     <!-- energy [eV] -->
     <defs>
      <path d="M 56.203125 29.59375 
L 56.203125 25.203125 
L 14.890625 25.203125 
Q 15.484375 15.921875 20.484375 11.0625 
Q 25.484375 6.203125 34.421875 6.203125 
Q 39.59375 6.203125 44.453125 7.46875 
Q 49.3125 8.734375 54.109375 11.28125 
L 54.109375 2.78125 
Q 49.265625 0.734375 44.1875 -0.34375 
Q 39.109375 -1.421875 33.890625 -1.421875 
Q 20.796875 -1.421875 13.15625 6.1875 
Q 5.515625 13.8125 5.515625 26.8125 
Q 5.515625 40.234375 12.765625 48.109375 
Q 20.015625 56 32.328125 56 
Q 43.359375 56 49.78125 48.890625 
Q 56.203125 41.796875 56.203125 29.59375 
z
M 47.21875 32.234375 
Q 47.125 39.59375 43.09375 43.984375 
Q 39.0625 48.390625 32.421875 48.390625 
Q 24.90625 48.390625 20.390625 44.140625 
Q 15.875 39.890625 15.1875 32.171875 
z
" id="DejaVuSans-101"/>
      <path d="M 54.890625 33.015625 
L 54.890625 0 
L 45.90625 0 
L 45.90625 32.71875 
Q 45.90625 40.484375 42.875 44.328125 
Q 39.84375 48.1875 33.796875 48.1875 
Q 26.515625 48.1875 22.3125 43.546875 
Q 18.109375 38.921875 18.109375 30.90625 
L 18.109375 0 
L 9.078125 0 
L 9.078125 54.6875 
L 18.109375 54.6875 
L 18.109375 46.1875 
Q 21.34375 51.125 25.703125 53.5625 
Q 30.078125 56 35.796875 56 
Q 45.21875 56 50.046875 50.171875 
Q 54.890625 44.34375 54.890625 33.015625 
z
" id="DejaVuSans-110"/>
      <path d="M 41.109375 46.296875 
Q 39.59375 47.171875 37.8125 47.578125 
Q 36.03125 48 33.890625 48 
Q 26.265625 48 22.1875 43.046875 
Q 18.109375 38.09375 18.109375 28.8125 
L 18.109375 0 
L 9.078125 0 
L 9.078125 54.6875 
L 18.109375 54.6875 
L 18.109375 46.1875 
Q 20.953125 51.171875 25.484375 53.578125 
Q 30.03125 56 36.53125 56 
Q 37.453125 56 38.578125 55.875 
Q 39.703125 55.765625 41.0625 55.515625 
z
" id="DejaVuSans-114"/>
      <path d="M 45.40625 27.984375 
Q 45.40625 37.75 41.375 43.109375 
Q 37.359375 48.484375 30.078125 48.484375 
Q 22.859375 48.484375 18.828125 43.109375 
Q 14.796875 37.75 14.796875 27.984375 
Q 14.796875 18.265625 18.828125 12.890625 
Q 22.859375 7.515625 30.078125 7.515625 
Q 37.359375 7.515625 41.375 12.890625 
Q 45.40625 18.265625 45.40625 27.984375 
z
M 54.390625 6.78125 
Q 54.390625 -7.171875 48.1875 -13.984375 
Q 42 -20.796875 29.203125 -20.796875 
Q 24.46875 -20.796875 20.265625 -20.09375 
Q 16.0625 -19.390625 12.109375 -17.921875 
L 12.109375 -9.1875 
Q 16.0625 -11.328125 19.921875 -12.34375 
Q 23.78125 -13.375 27.78125 -13.375 
Q 36.625 -13.375 41.015625 -8.765625 
Q 45.40625 -4.15625 45.40625 5.171875 
L 45.40625 9.625 
Q 42.625 4.78125 38.28125 2.390625 
Q 33.9375 0 27.875 0 
Q 17.828125 0 11.671875 7.65625 
Q 5.515625 15.328125 5.515625 27.984375 
Q 5.515625 40.671875 11.671875 48.328125 
Q 17.828125 56 27.875 56 
Q 33.9375 56 38.28125 53.609375 
Q 42.625 51.21875 45.40625 46.390625 
L 45.40625 54.6875 
L 54.390625 54.6875 
z
" id="DejaVuSans-103"/>
      <path d="M 32.171875 -5.078125 
Q 28.375 -14.84375 24.75 -17.8125 
Q 21.140625 -20.796875 15.09375 -20.796875 
L 7.90625 -20.796875 
L 7.90625 -13.28125 
L 13.1875 -13.28125 
Q 16.890625 -13.28125 18.9375 -11.515625 
Q 21 -9.765625 23.484375 -3.21875 
L 25.09375 0.875 
L 2.984375 54.6875 
L 12.5 54.6875 
L 29.59375 11.921875 
L 46.6875 54.6875 
L 56.203125 54.6875 
z
" id="DejaVuSans-121"/>
      <path d="M 28.609375 0 
L 0.78125 72.90625 
L 11.078125 72.90625 
L 34.1875 11.53125 
L 57.328125 72.90625 
L 67.578125 72.90625 
L 39.796875 0 
z
" id="DejaVuSans-86"/>
     </defs>
     <g style="fill:#555555;" transform="translate(35.443125 361.674375)rotate(-90)scale(0.24 -0.24)">
      <use xlink:href="#DejaVuSans-101"/>
      <use x="61.523438" xlink:href="#DejaVuSans-110"/>
      <use x="124.902344" xlink:href="#DejaVuSans-101"/>
      <use x="186.425781" xlink:href="#DejaVuSans-114"/>
      <use x="227.523438" xlink:href="#DejaVuSans-103"/>
      <use x="291" xlink:href="#DejaVuSans-121"/>
      <use x="350.179688" xlink:href="#DejaVuSans-32"/>
      <use x="381.966797" xlink:href="#DejaVuSans-91"/>
      <use x="420.980469" xlink:href="#DejaVuSans-101"/>
      <use x="482.503906" xlink:href="#DejaVuSans-86"/>
      <use x="550.912109" xlink:href="#DejaVuSans-93"/>
     </g>
    </g>
   </g>
   <g id="line2d_11">
    <defs>
     <path d="M 0 4.5 
C 1.193414 4.5 2.338109 4.025852 3.181981 3.181981 
C 4.025852 2.338109 4.5 1.193414 4.5 0 
C 4.5 -1.193414 4.025852 -2.338109 3.181981 -3.181981 
C 2.338109 -4.025852 1.193414 -4.5 0 -4.5 
C -1.193414 -4.5 -2.338109 -4.025852 -3.181981 -3.181981 
C -4.025852 -2.338109 -4.5 -1.193414 -4.5 0 
C -4.5 1.193414 -4.025852 2.338109 -3.181981 3.181981 
C -2.338109 4.025852 -1.193414 4.5 0 4.5 
z
" id="mf9c37dcc66" style="stroke:#1f77b4;"/>
    </defs>
    <g clip-path="url(#p79f3ef919f)">
     <use style="fill:#1f77b4;stroke:#1f77b4;" x="161.845706" xlink:href="#mf9c37dcc66" y="382.582149"/>
     <use style="fill:#1f77b4;stroke:#1f77b4;" x="231.737117" xlink:href="#mf9c37dcc66" y="190.128431"/>
     <use style="fill:#1f77b4;stroke:#1f77b4;" x="302.638906" xlink:href="#mf9c37dcc66" y="151.952492"/>
     <use style="fill:#1f77b4;stroke:#1f77b4;" x="373.313497" xlink:href="#mf9c37dcc66" y="141.787598"/>
     <use style="fill:#1f77b4;stroke:#1f77b4;" x="444.231017" xlink:href="#mf9c37dcc66" y="134.019925"/>
     <use style="fill:#1f77b4;stroke:#1f77b4;" x="514.092397" xlink:href="#mf9c37dcc66" y="122.033678"/>
     <use style="fill:#1f77b4;stroke:#1f77b4;" x="582.802383" xlink:href="#mf9c37dcc66" y="107.990028"/>
     <use style="fill:#1f77b4;stroke:#1f77b4;" x="650.867461" xlink:href="#mf9c37dcc66" y="94.913424"/>
    </g>
   </g>
   <g id="line2d_12">
    <path clip-path="url(#p79f3ef919f)" d="M 126.9 492.48 
L 161.845706 382.582149 
L 196.791411 272.684299 
" style="fill:none;stroke:#008000;stroke-linecap:square;stroke-width:2.5;"/>
   </g>
   <g id="line2d_13">
    <path clip-path="url(#p79f3ef919f)" d="M 196.538817 231.340271 
L 231.737117 190.128431 
L 266.935417 148.916591 
" style="fill:none;stroke:#008000;stroke-linecap:square;stroke-width:2.5;"/>
   </g>
   <g id="line2d_14">
    <path clip-path="url(#p79f3ef919f)" d="M 267.244811 159.901303 
L 302.638906 151.952492 
L 338.033001 144.00368 
" style="fill:none;stroke:#008000;stroke-linecap:square;stroke-width:2.5;"/>
   </g>
   <g id="line2d_15">
    <path clip-path="url(#p79f3ef919f)" d="M 337.915469 144.793205 
L 373.313497 141.787598 
L 408.711525 138.781991 
" style="fill:none;stroke:#008000;stroke-linecap:square;stroke-width:2.5;"/>
   </g>
   <g id="line2d_16">
    <path clip-path="url(#p79f3ef919f)" d="M 409.036292 138.508144 
L 444.231017 134.019925 
L 479.425742 129.531706 
" style="fill:none;stroke:#008000;stroke-linecap:square;stroke-width:2.5;"/>
   </g>
   <g id="line2d_17">
    <path clip-path="url(#p79f3ef919f)" d="M 479.449556 128.720382 
L 514.092397 122.033678 
L 548.735238 115.346973 
" style="fill:none;stroke:#008000;stroke-linecap:square;stroke-width:2.5;"/>
   </g>
   <g id="line2d_18">
    <path clip-path="url(#p79f3ef919f)" d="M 548.608617 114.529154 
L 582.802383 107.990028 
L 616.996149 101.450901 
" style="fill:none;stroke:#008000;stroke-linecap:square;stroke-width:2.5;"/>
   </g>
   <g id="line2d_19">
    <path clip-path="url(#p79f3ef919f)" d="M 616.834922 100.546848 
L 650.867461 94.913424 
L 684.9 89.28 
" style="fill:none;stroke:#008000;stroke-linecap:square;stroke-width:2.5;"/>
   </g>
   <g id="line2d_20">
    <path clip-path="url(#p79f3ef919f)" d="M 161.845706 382.582149 
L 168.834847 360.126483 
L 193.29684 279.935575 
L 200.285982 258.629034 
L 203.780552 248.555587 
L 207.275123 238.951967 
L 210.769693 229.880636 
L 214.264264 221.404052 
L 217.758834 213.584674 
L 221.253405 206.484964 
L 224.747975 200.167381 
L 228.242546 194.694383 
L 231.737117 190.128431 
L 235.282206 186.143413 
L 238.827295 182.478583 
L 242.372385 179.117003 
L 245.917474 176.041731 
L 249.462564 173.235828 
L 253.007653 170.682354 
L 256.552743 168.36437 
L 260.097832 166.264935 
L 263.642922 164.367111 
L 267.188011 162.653956 
L 270.733101 161.108531 
L 274.27819 159.713896 
L 281.368369 157.309239 
L 288.458548 155.304465 
L 295.548727 153.564055 
L 306.172635 151.176819 
L 316.773824 149.055741 
L 327.375013 147.219266 
L 337.976201 145.636143 
L 348.57739 144.275123 
L 359.178579 143.104955 
L 373.313497 141.787598 
L 391.042877 140.151049 
L 408.772257 138.281543 
L 430.047513 135.792678 
L 451.217155 133.084034 
L 461.696362 131.526319 
L 475.668638 129.211862 
L 493.133983 126.04366 
L 520.963396 120.684469 
L 541.576391 116.441975 
L 575.931384 109.328223 
L 640.657699 96.67993 
L 650.867461 94.913424 
L 650.867461 94.913424 
" style="fill:none;stroke:#000000;stroke-linecap:square;stroke-width:2.5;"/>
   </g>
   <g id="patch_3">
    <path d="M 99 512.64 
L 99 69.12 
" style="fill:none;stroke:#000000;stroke-linecap:square;stroke-linejoin:miter;stroke-width:3;"/>
   </g>
   <g id="patch_4">
    <path d="M 712.8 512.64 
L 712.8 69.12 
" style="fill:none;stroke:#000000;stroke-linecap:square;stroke-linejoin:miter;stroke-width:3;"/>
   </g>
   <g id="patch_5">
    <path d="M 99 512.64 
L 712.8 512.64 
" style="fill:none;stroke:#000000;stroke-linecap:square;stroke-linejoin:miter;stroke-width:3;"/>
   </g>
   <g id="patch_6">
    <path d="M 99 69.12 
L 712.8 69.12 
" style="fill:none;stroke:#000000;stroke-linecap:square;stroke-linejoin:miter;stroke-width:3;"/>
   </g>
   <g id="text_13">
    <!-- $E_\mathrm{f} \approx$ 0.335 eV; $E_\mathrm{r} \approx$ 0.000 eV; $\Delta E$ = 0.335 eV -->
    <defs>
     <path d="M 16.890625 72.90625 
L 62.984375 72.90625 
L 61.375 64.59375 
L 25.09375 64.59375 
L 20.90625 43.015625 
L 55.71875 43.015625 
L 54.109375 34.71875 
L 19.28125 34.71875 
L 14.203125 8.296875 
L 51.3125 8.296875 
L 49.703125 0 
L 2.6875 0 
z
" id="DejaVuSans-Oblique-69"/>
     <path d="M 37.109375 75.984375 
L 37.109375 68.5 
L 28.515625 68.5 
Q 23.6875 68.5 21.796875 66.546875 
Q 19.921875 64.59375 19.921875 59.515625 
L 19.921875 54.6875 
L 34.71875 54.6875 
L 34.71875 47.703125 
L 19.921875 47.703125 
L 19.921875 0 
L 10.890625 0 
L 10.890625 47.703125 
L 2.296875 47.703125 
L 2.296875 54.6875 
L 10.890625 54.6875 
L 10.890625 58.5 
Q 10.890625 67.625 15.140625 71.796875 
Q 19.390625 75.984375 28.609375 75.984375 
z
" id="DejaVuSans-102"/>
     <path d="M 73.1875 30.421875 
L 73.1875 21.6875 
Q 68.0625 17.875 63.6875 16.1875 
Q 59.328125 14.5 54.59375 14.5 
Q 49.21875 14.5 42.09375 17.390625 
Q 41.609375 17.578125 41.265625 17.71875 
Q 40.96875 17.828125 40.234375 18.109375 
Q 32.671875 21.09375 28.078125 21.09375 
Q 23.78125 21.09375 19.578125 19.234375 
Q 15.375 17.390625 10.59375 13.28125 
L 10.59375 22.015625 
Q 15.71875 25.828125 20.09375 27.515625 
Q 24.46875 29.203125 29.203125 29.203125 
Q 34.578125 29.203125 41.75 26.3125 
Q 42.28125 26.078125 42.53125 25.984375 
Q 42.828125 25.875 43.5625 25.59375 
Q 51.125 22.609375 55.71875 22.609375 
Q 59.90625 22.609375 64.03125 24.4375 
Q 68.171875 26.265625 73.1875 30.421875 
z
M 73.1875 49.421875 
L 73.1875 40.71875 
Q 68.0625 36.859375 63.6875 35.171875 
Q 59.328125 33.5 54.59375 33.5 
Q 49.21875 33.5 42.09375 36.375 
Q 41.609375 36.578125 41.265625 36.71875 
Q 40.96875 36.8125 40.234375 37.109375 
Q 32.671875 40.09375 28.078125 40.09375 
Q 23.78125 40.09375 19.578125 38.234375 
Q 15.375 36.375 10.59375 32.328125 
L 10.59375 41.015625 
Q 15.71875 44.828125 20.09375 46.5 
Q 24.46875 48.1875 29.203125 48.1875 
Q 34.578125 48.1875 41.75 45.3125 
Q 42.234375 45.125 42.484375 45.015625 
Q 42.828125 44.875 43.5625 44.578125 
Q 51.125 41.609375 55.71875 41.609375 
Q 59.90625 41.609375 64.03125 43.4375 
Q 68.171875 45.265625 73.1875 49.421875 
z
" id="DejaVuSans-8776"/>
     <path d="M 10.796875 72.90625 
L 49.515625 72.90625 
L 49.515625 64.59375 
L 19.828125 64.59375 
L 19.828125 46.734375 
Q 21.96875 47.46875 24.109375 47.828125 
Q 26.265625 48.1875 28.421875 48.1875 
Q 40.625 48.1875 47.75 41.5 
Q 54.890625 34.8125 54.890625 23.390625 
Q 54.890625 11.625 47.5625 5.09375 
Q 40.234375 -1.421875 26.90625 -1.421875 
Q 22.3125 -1.421875 17.546875 -0.640625 
Q 12.796875 0.140625 7.71875 1.703125 
L 7.71875 11.625 
Q 12.109375 9.234375 16.796875 8.0625 
Q 21.484375 6.890625 26.703125 6.890625 
Q 35.15625 6.890625 40.078125 11.328125 
Q 45.015625 15.765625 45.015625 23.390625 
Q 45.015625 31 40.078125 35.4375 
Q 35.15625 39.890625 26.703125 39.890625 
Q 22.75 39.890625 18.8125 39.015625 
Q 14.890625 38.140625 10.796875 36.28125 
z
" id="DejaVuSans-53"/>
     <path d="M 11.71875 51.703125 
L 22.015625 51.703125 
L 22.015625 39.3125 
L 11.71875 39.3125 
z
M 11.71875 12.40625 
L 22.015625 12.40625 
L 22.015625 4 
L 14.015625 -11.625 
L 7.71875 -11.625 
L 11.71875 4 
z
" id="DejaVuSans-59"/>
     <path d="M 34.1875 63.1875 
L 14.15625 8.203125 
L 54.25 8.203125 
z
M 0.78125 0 
L 28.609375 72.90625 
L 39.796875 72.90625 
L 67.578125 0 
z
" id="DejaVuSans-916"/>
     <path d="M 10.59375 45.40625 
L 73.1875 45.40625 
L 73.1875 37.203125 
L 10.59375 37.203125 
z
M 10.59375 25.484375 
L 73.1875 25.484375 
L 73.1875 17.1875 
L 10.59375 17.1875 
z
" id="DejaVuSans-61"/>
    </defs>
    <g transform="translate(136.02 63.12)scale(0.24 -0.24)">
     <use transform="translate(0 0.78125)" xlink:href="#DejaVuSans-Oblique-69"/>
     <use transform="translate(63.183594 -15.625)scale(0.7)" xlink:href="#DejaVuSans-102"/>
     <use transform="translate(110.043945 0.78125)" xlink:href="#DejaVuSans-8776"/>
     <use transform="translate(213.31543 0.78125)" xlink:href="#DejaVuSans-32"/>
     <use transform="translate(245.102539 0.78125)" xlink:href="#DejaVuSans-48"/>
     <use transform="translate(308.725586 0.78125)" xlink:href="#DejaVuSans-46"/>
     <use transform="translate(340.512695 0.78125)" xlink:href="#DejaVuSans-51"/>
     <use transform="translate(404.135742 0.78125)" xlink:href="#DejaVuSans-51"/>
     <use transform="translate(467.758789 0.78125)" xlink:href="#DejaVuSans-53"/>
     <use transform="translate(531.381836 0.78125)" xlink:href="#DejaVuSans-32"/>
     <use transform="translate(563.168945 0.78125)" xlink:href="#DejaVuSans-101"/>
     <use transform="translate(624.692383 0.78125)" xlink:href="#DejaVuSans-86"/>
     <use transform="translate(693.100586 0.78125)" xlink:href="#DejaVuSans-59"/>
     <use transform="translate(726.791992 0.78125)" xlink:href="#DejaVuSans-32"/>
     <use transform="translate(758.579102 0.78125)" xlink:href="#DejaVuSans-Oblique-69"/>
     <use transform="translate(821.762695 -15.625)scale(0.7)" xlink:href="#DejaVuSans-114"/>
     <use transform="translate(872.758789 0.78125)" xlink:href="#DejaVuSans-8776"/>
     <use transform="translate(976.030273 0.78125)" xlink:href="#DejaVuSans-32"/>
     <use transform="translate(1007.817383 0.78125)" xlink:href="#DejaVuSans-48"/>
     <use transform="translate(1071.44043 0.78125)" xlink:href="#DejaVuSans-46"/>
     <use transform="translate(1103.227539 0.78125)" xlink:href="#DejaVuSans-48"/>
     <use transform="translate(1166.850586 0.78125)" xlink:href="#DejaVuSans-48"/>
     <use transform="translate(1230.473633 0.78125)" xlink:href="#DejaVuSans-48"/>
     <use transform="translate(1294.09668 0.78125)" xlink:href="#DejaVuSans-32"/>
     <use transform="translate(1325.883789 0.78125)" xlink:href="#DejaVuSans-101"/>
     <use transform="translate(1387.407227 0.78125)" xlink:href="#DejaVuSans-86"/>
     <use transform="translate(1455.81543 0.78125)" xlink:href="#DejaVuSans-59"/>
     <use transform="translate(1489.506836 0.78125)" xlink:href="#DejaVuSans-32"/>
     <use transform="translate(1521.293945 0.78125)" xlink:href="#DejaVuSans-916"/>
     <use transform="translate(1589.702148 0.78125)" xlink:href="#DejaVuSans-Oblique-69"/>
     <use transform="translate(1652.885742 0.78125)" xlink:href="#DejaVuSans-32"/>
     <use transform="translate(1684.672852 0.78125)" xlink:href="#DejaVuSans-61"/>
     <use transform="translate(1768.461914 0.78125)" xlink:href="#DejaVuSans-32"/>
     <use transform="translate(1800.249023 0.78125)" xlink:href="#DejaVuSans-48"/>
     <use transform="translate(1863.87207 0.78125)" xlink:href="#DejaVuSans-46"/>
     <use transform="translate(1895.65918 0.78125)" xlink:href="#DejaVuSans-51"/>
     <use transform="translate(1959.282227 0.78125)" xlink:href="#DejaVuSans-51"/>
     <use transform="translate(2022.905273 0.78125)" xlink:href="#DejaVuSans-53"/>
     <use transform="translate(2086.52832 0.78125)" xlink:href="#DejaVuSans-32"/>
     <use transform="translate(2118.31543 0.78125)" xlink:href="#DejaVuSans-101"/>
     <use transform="translate(2179.838867 0.78125)" xlink:href="#DejaVuSans-86"/>
    </g>
   </g>
  </g>
 </g>
 <defs>
  <clipPath id="p79f3ef919f">
   <rect height="443.52" width="613.8" x="99" y="69.12"/>
  </clipPath>
 </defs>
</svg>
