<?xml version="1.0" encoding="utf-8" standalone="no"?>
<!DOCTYPE svg PUBLIC "-//W3C//DTD SVG 1.1//EN"
  "http://www.w3.org/Graphics/SVG/1.1/DTD/svg11.dtd">
<!-- Created with matplotlib (https://matplotlib.org/) -->
<svg height="576pt" version="1.1" viewBox="0 0 792 576" width="792pt" xmlns="http://www.w3.org/2000/svg" xmlns:xlink="http://www.w3.org/1999/xlink">
 <defs>
  <style type="text/css">
*{stroke-linecap:butt;stroke-linejoin:round;}
  </style>
 </defs>
 <g id="figure_1">
  <g id="patch_1">
   <path d="M 0 576 
L 792 576 
L 792 0 
L 0 0 
z
" style="fill:#ffffff;"/>
  </g>
  <g id="axes_1">
   <g id="patch_2">
    <path d="M 99 512.64 
L 712.8 512.64 
L 712.8 69.12 
L 99 69.12 
z
" style="fill:#ffffff;"/>
   </g>
   <g id="matplotlib.axis_1">
    <g id="xtick_1">
     <g id="line2d_1">
      <defs>
       <path d="M 0 0 
L 0 -8 
" id="m03d57289a2" style="stroke:#555555;stroke-width:0.8;"/>
      </defs>
      <g>
       <use style="fill:#555555;stroke:#555555;stroke-width:0.8;" x="135.70159" xlink:href="#m03d57289a2" y="512.64"/>
      </g>
     </g>
     <g id="text_1">
      <!-- 0 -->
      <defs>
       <path d="M 31.78125 66.40625 
Q 24.171875 66.40625 20.328125 58.90625 
Q 16.5 51.421875 16.5 36.375 
Q 16.5 21.390625 20.328125 13.890625 
Q 24.171875 6.390625 31.78125 6.390625 
Q 39.453125 6.390625 43.28125 13.890625 
Q 47.125 21.390625 47.125 36.375 
Q 47.125 51.421875 43.28125 58.90625 
Q 39.453125 66.40625 31.78125 66.40625 
z
M 31.78125 74.21875 
Q 44.046875 74.21875 50.515625 64.515625 
Q 56.984375 54.828125 56.984375 36.375 
Q 56.984375 17.96875 50.515625 8.265625 
Q 44.046875 -1.421875 31.78125 -1.421875 
Q 19.53125 -1.421875 13.0625 8.265625 
Q 6.59375 17.96875 6.59375 36.375 
Q 6.59375 54.828125 13.0625 64.515625 
Q 19.53125 74.21875 31.78125 74.21875 
z
" id="DejaVuSans-48"/>
      </defs>
      <g style="fill:#555555;" transform="translate(129.33909 533.836875)scale(0.2 -0.2)">
       <use xlink:href="#DejaVuSans-48"/>
      </g>
     </g>
    </g>
    <g id="xtick_2">
     <g id="line2d_2">
      <g>
       <use style="fill:#555555;stroke:#555555;stroke-width:0.8;" x="253.860037" xlink:href="#m03d57289a2" y="512.64"/>
      </g>
     </g>
     <g id="text_2">
      <!-- 2 -->
      <defs>
       <path d="M 19.1875 8.296875 
L 53.609375 8.296875 
L 53.609375 0 
L 7.328125 0 
L 7.328125 8.296875 
Q 12.9375 14.109375 22.625 23.890625 
Q 32.328125 33.6875 34.8125 36.53125 
Q 39.546875 41.84375 41.421875 45.53125 
Q 43.3125 49.21875 43.3125 52.78125 
Q 43.3125 58.59375 39.234375 62.25 
Q 35.15625 65.921875 28.609375 65.921875 
Q 23.96875 65.921875 18.8125 64.3125 
Q 13.671875 62.703125 7.8125 59.421875 
L 7.8125 69.390625 
Q 13.765625 71.78125 18.9375 73 
Q 24.125 74.21875 28.421875 74.21875 
Q 39.75 74.21875 46.484375 68.546875 
Q 53.21875 62.890625 53.21875 53.421875 
Q 53.21875 48.921875 51.53125 44.890625 
Q 49.859375 40.875 45.40625 35.40625 
Q 44.1875 33.984375 37.640625 27.21875 
Q 31.109375 20.453125 19.1875 8.296875 
z
" id="DejaVuSans-50"/>
      </defs>
      <g style="fill:#555555;" transform="translate(247.497537 533.836875)scale(0.2 -0.2)">
       <use xlink:href="#DejaVuSans-50"/>
      </g>
     </g>
    </g>
    <g id="xtick_3">
     <g id="line2d_3">
      <g>
       <use style="fill:#555555;stroke:#555555;stroke-width:0.8;" x="372.018484" xlink:href="#m03d57289a2" y="512.64"/>
      </g>
     </g>
     <g id="text_3">
      <!-- 4 -->
      <defs>
       <path d="M 37.796875 64.3125 
L 12.890625 25.390625 
L 37.796875 25.390625 
z
M 35.203125 72.90625 
L 47.609375 72.90625 
L 47.609375 25.390625 
L 58.015625 25.390625 
L 58.015625 17.1875 
L 47.609375 17.1875 
L 47.609375 0 
L 37.796875 0 
L 37.796875 17.1875 
L 4.890625 17.1875 
L 4.890625 26.703125 
z
" id="DejaVuSans-52"/>
      </defs>
      <g style="fill:#555555;" transform="translate(365.655984 533.836875)scale(0.2 -0.2)">
       <use xlink:href="#DejaVuSans-52"/>
      </g>
     </g>
    </g>
    <g id="xtick_4">
     <g id="line2d_4">
      <g>
       <use style="fill:#555555;stroke:#555555;stroke-width:0.8;" x="490.176931" xlink:href="#m03d57289a2" y="512.64"/>
      </g>
     </g>
     <g id="text_4">
      <!-- 6 -->
      <defs>
       <path d="M 33.015625 40.375 
Q 26.375 40.375 22.484375 35.828125 
Q 18.609375 31.296875 18.609375 23.390625 
Q 18.609375 15.53125 22.484375 10.953125 
Q 26.375 6.390625 33.015625 6.390625 
Q 39.65625 6.390625 43.53125 10.953125 
Q 47.40625 15.53125 47.40625 23.390625 
Q 47.40625 31.296875 43.53125 35.828125 
Q 39.65625 40.375 33.015625 40.375 
z
M 52.59375 71.296875 
L 52.59375 62.3125 
Q 48.875 64.0625 45.09375 64.984375 
Q 41.3125 65.921875 37.59375 65.921875 
Q 27.828125 65.921875 22.671875 59.328125 
Q 17.53125 52.734375 16.796875 39.40625 
Q 19.671875 43.65625 24.015625 45.921875 
Q 28.375 48.1875 33.59375 48.1875 
Q 44.578125 48.1875 50.953125 41.515625 
Q 57.328125 34.859375 57.328125 23.390625 
Q 57.328125 12.15625 50.6875 5.359375 
Q 44.046875 -1.421875 33.015625 -1.421875 
Q 20.359375 -1.421875 13.671875 8.265625 
Q 6.984375 17.96875 6.984375 36.375 
Q 6.984375 53.65625 15.1875 63.9375 
Q 23.390625 74.21875 37.203125 74.21875 
Q 40.921875 74.21875 44.703125 73.484375 
Q 48.484375 72.75 52.59375 71.296875 
z
" id="DejaVuSans-54"/>
      </defs>
      <g style="fill:#555555;" transform="translate(483.814431 533.836875)scale(0.2 -0.2)">
       <use xlink:href="#DejaVuSans-54"/>
      </g>
     </g>
    </g>
    <g id="xtick_5">
     <g id="line2d_5">
      <g>
       <use style="fill:#555555;stroke:#555555;stroke-width:0.8;" x="608.335378" xlink:href="#m03d57289a2" y="512.64"/>
      </g>
     </g>
     <g id="text_5">
      <!-- 8 -->
      <defs>
       <path d="M 31.78125 34.625 
Q 24.75 34.625 20.71875 30.859375 
Q 16.703125 27.09375 16.703125 20.515625 
Q 16.703125 13.921875 20.71875 10.15625 
Q 24.75 6.390625 31.78125 6.390625 
Q 38.8125 6.390625 42.859375 10.171875 
Q 46.921875 13.96875 46.921875 20.515625 
Q 46.921875 27.09375 42.890625 30.859375 
Q 38.875 34.625 31.78125 34.625 
z
M 21.921875 38.8125 
Q 15.578125 40.375 12.03125 44.71875 
Q 8.5 49.078125 8.5 55.328125 
Q 8.5 64.0625 14.71875 69.140625 
Q 20.953125 74.21875 31.78125 74.21875 
Q 42.671875 74.21875 48.875 69.140625 
Q 55.078125 64.0625 55.078125 55.328125 
Q 55.078125 49.078125 51.53125 44.71875 
Q 48 40.375 41.703125 38.8125 
Q 48.828125 37.15625 52.796875 32.3125 
Q 56.78125 27.484375 56.78125 20.515625 
Q 56.78125 9.90625 50.3125 4.234375 
Q 43.84375 -1.421875 31.78125 -1.421875 
Q 19.734375 -1.421875 13.25 4.234375 
Q 6.78125 9.90625 6.78125 20.515625 
Q 6.78125 27.484375 10.78125 32.3125 
Q 14.796875 37.15625 21.921875 38.8125 
z
M 18.3125 54.390625 
Q 18.3125 48.734375 21.84375 45.5625 
Q 25.390625 42.390625 31.78125 42.390625 
Q 38.140625 42.390625 41.71875 45.5625 
Q 45.3125 48.734375 45.3125 54.390625 
Q 45.3125 60.0625 41.71875 63.234375 
Q 38.140625 66.40625 31.78125 66.40625 
Q 25.390625 66.40625 21.84375 63.234375 
Q 18.3125 60.0625 18.3125 54.390625 
z
" id="DejaVuSans-56"/>
      </defs>
      <g style="fill:#555555;" transform="translate(601.972878 533.836875)scale(0.2 -0.2)">
       <use xlink:href="#DejaVuSans-56"/>
      </g>
     </g>
    </g>
    <g id="text_6">
     <!-- path [$\AA$] -->
     <defs>
      <path d="M 18.109375 8.203125 
L 18.109375 -20.796875 
L 9.078125 -20.796875 
L 9.078125 54.6875 
L 18.109375 54.6875 
L 18.109375 46.390625 
Q 20.953125 51.265625 25.265625 53.625 
Q 29.59375 56 35.59375 56 
Q 45.5625 56 51.78125 48.09375 
Q 58.015625 40.1875 58.015625 27.296875 
Q 58.015625 14.40625 51.78125 6.484375 
Q 45.5625 -1.421875 35.59375 -1.421875 
Q 29.59375 -1.421875 25.265625 0.953125 
Q 20.953125 3.328125 18.109375 8.203125 
z
M 48.6875 27.296875 
Q 48.6875 37.203125 44.609375 42.84375 
Q 40.53125 48.484375 33.40625 48.484375 
Q 26.265625 48.484375 22.1875 42.84375 
Q 18.109375 37.203125 18.109375 27.296875 
Q 18.109375 17.390625 22.1875 11.75 
Q 26.265625 6.109375 33.40625 6.109375 
Q 40.53125 6.109375 44.609375 11.75 
Q 48.6875 17.390625 48.6875 27.296875 
z
" id="DejaVuSans-112"/>
      <path d="M 34.28125 27.484375 
Q 23.390625 27.484375 19.1875 25 
Q 14.984375 22.515625 14.984375 16.5 
Q 14.984375 11.71875 18.140625 8.90625 
Q 21.296875 6.109375 26.703125 6.109375 
Q 34.1875 6.109375 38.703125 11.40625 
Q 43.21875 16.703125 43.21875 25.484375 
L 43.21875 27.484375 
z
M 52.203125 31.203125 
L 52.203125 0 
L 43.21875 0 
L 43.21875 8.296875 
Q 40.140625 3.328125 35.546875 0.953125 
Q 30.953125 -1.421875 24.3125 -1.421875 
Q 15.921875 -1.421875 10.953125 3.296875 
Q 6 8.015625 6 15.921875 
Q 6 25.140625 12.171875 29.828125 
Q 18.359375 34.515625 30.609375 34.515625 
L 43.21875 34.515625 
L 43.21875 35.40625 
Q 43.21875 41.609375 39.140625 45 
Q 35.0625 48.390625 27.6875 48.390625 
Q 23 48.390625 18.546875 47.265625 
Q 14.109375 46.140625 10.015625 43.890625 
L 10.015625 52.203125 
Q 14.9375 54.109375 19.578125 55.046875 
Q 24.21875 56 28.609375 56 
Q 40.484375 56 46.34375 49.84375 
Q 52.203125 43.703125 52.203125 31.203125 
z
" id="DejaVuSans-97"/>
      <path d="M 18.3125 70.21875 
L 18.3125 54.6875 
L 36.8125 54.6875 
L 36.8125 47.703125 
L 18.3125 47.703125 
L 18.3125 18.015625 
Q 18.3125 11.328125 20.140625 9.421875 
Q 21.96875 7.515625 27.59375 7.515625 
L 36.8125 7.515625 
L 36.8125 0 
L 27.59375 0 
Q 17.1875 0 13.234375 3.875 
Q 9.28125 7.765625 9.28125 18.015625 
L 9.28125 47.703125 
L 2.6875 47.703125 
L 2.6875 54.6875 
L 9.28125 54.6875 
L 9.28125 70.21875 
z
" id="DejaVuSans-116"/>
      <path d="M 54.890625 33.015625 
L 54.890625 0 
L 45.90625 0 
L 45.90625 32.71875 
Q 45.90625 40.484375 42.875 44.328125 
Q 39.84375 48.1875 33.796875 48.1875 
Q 26.515625 48.1875 22.3125 43.546875 
Q 18.109375 38.921875 18.109375 30.90625 
L 18.109375 0 
L 9.078125 0 
L 9.078125 75.984375 
L 18.109375 75.984375 
L 18.109375 46.1875 
Q 21.34375 51.125 25.703125 53.5625 
Q 30.078125 56 35.796875 56 
Q 45.21875 56 50.046875 50.171875 
Q 54.890625 44.34375 54.890625 33.015625 
z
" id="DejaVuSans-104"/>
      <path id="DejaVuSans-32"/>
      <path d="M 8.59375 75.984375 
L 29.296875 75.984375 
L 29.296875 69 
L 17.578125 69 
L 17.578125 -6.203125 
L 29.296875 -6.203125 
L 29.296875 -13.1875 
L 8.59375 -13.1875 
z
" id="DejaVuSans-91"/>
      <path d="M 49.8125 79.390625 
Q 49.8125 82.46875 47.625 84.640625 
Q 45.453125 86.8125 42.390625 86.8125 
Q 39.265625 86.8125 37.140625 84.6875 
Q 35.015625 82.5625 35.015625 79.390625 
Q 35.015625 76.3125 37.140625 74.15625 
Q 39.265625 72.015625 42.390625 72.015625 
Q 45.453125 72.015625 47.625 74.15625 
Q 49.8125 76.3125 49.8125 79.390625 
z
M 34.421875 68.703125 
Q 31.78125 70.515625 30.390625 73.265625 
Q 29 76.03125 29 79.390625 
Q 29 84.96875 32.90625 88.890625 
Q 36.8125 92.828125 42.390625 92.828125 
Q 47.953125 92.828125 51.875 88.890625 
Q 55.8125 84.96875 55.8125 79.390625 
Q 55.8125 75.53125 54.03125 72.546875 
Q 52.25 69.578125 48.875 67.828125 
L 61.53125 0 
L 51.21875 0 
L 48.1875 18.703125 
L 15.375 18.703125 
L 5.078125 0 
L -5.328125 0 
z
M 40.375 63.1875 
L 19.921875 26.90625 
L 46.6875 26.90625 
z
" id="DejaVuSans-Oblique-197"/>
      <path d="M 30.421875 75.984375 
L 30.421875 -13.1875 
L 9.71875 -13.1875 
L 9.71875 -6.203125 
L 21.390625 -6.203125 
L 21.390625 69 
L 9.71875 69 
L 9.71875 75.984375 
z
" id="DejaVuSans-93"/>
     </defs>
     <g style="fill:#555555;" transform="translate(357.18 564.31625)scale(0.24 -0.24)">
      <use transform="translate(0 0.171875)" xlink:href="#DejaVuSans-112"/>
      <use transform="translate(63.476562 0.171875)" xlink:href="#DejaVuSans-97"/>
      <use transform="translate(124.755859 0.171875)" xlink:href="#DejaVuSans-116"/>
      <use transform="translate(163.964844 0.171875)" xlink:href="#DejaVuSans-104"/>
      <use transform="translate(227.34375 0.171875)" xlink:href="#DejaVuSans-32"/>
      <use transform="translate(259.130859 0.171875)" xlink:href="#DejaVuSans-91"/>
      <use transform="translate(298.144531 0.171875)" xlink:href="#DejaVuSans-Oblique-197"/>
      <use transform="translate(366.552734 0.171875)" xlink:href="#DejaVuSans-93"/>
     </g>
    </g>
   </g>
   <g id="matplotlib.axis_2">
    <g id="ytick_1">
     <g id="line2d_6">
      <defs>
       <path d="M 0 0 
L 8 0 
" id="m493efb4b6f" style="stroke:#555555;stroke-width:0.8;"/>
      </defs>
      <g>
       <use style="fill:#555555;stroke:#555555;stroke-width:0.8;" x="99" xlink:href="#m493efb4b6f" y="506.260655"/>
      </g>
     </g>
     <g id="text_7">
      <!-- −0.8 -->
      <defs>
       <path d="M 10.59375 35.5 
L 73.1875 35.5 
L 73.1875 27.203125 
L 10.59375 27.203125 
z
" id="DejaVuSans-8722"/>
       <path d="M 10.6875 12.40625 
L 21 12.40625 
L 21 0 
L 10.6875 0 
z
" id="DejaVuSans-46"/>
      </defs>
      <g style="fill:#555555;" transform="translate(44.434375 513.859093)scale(0.2 -0.2)">
       <use xlink:href="#DejaVuSans-8722"/>
       <use x="83.789062" xlink:href="#DejaVuSans-48"/>
       <use x="147.412109" xlink:href="#DejaVuSans-46"/>
       <use x="179.199219" xlink:href="#DejaVuSans-56"/>
      </g>
     </g>
    </g>
    <g id="ytick_2">
     <g id="line2d_7">
      <g>
       <use style="fill:#555555;stroke:#555555;stroke-width:0.8;" x="99" xlink:href="#m493efb4b6f" y="437.066789"/>
      </g>
     </g>
     <g id="text_8">
      <!-- −0.6 -->
      <g style="fill:#555555;" transform="translate(44.434375 444.665226)scale(0.2 -0.2)">
       <use xlink:href="#DejaVuSans-8722"/>
       <use x="83.789062" xlink:href="#DejaVuSans-48"/>
       <use x="147.412109" xlink:href="#DejaVuSans-46"/>
       <use x="179.199219" xlink:href="#DejaVuSans-54"/>
      </g>
     </g>
    </g>
    <g id="ytick_3">
     <g id="line2d_8">
      <g>
       <use style="fill:#555555;stroke:#555555;stroke-width:0.8;" x="99" xlink:href="#m493efb4b6f" y="367.872922"/>
      </g>
     </g>
     <g id="text_9">
      <!-- −0.4 -->
      <g style="fill:#555555;" transform="translate(44.434375 375.47136)scale(0.2 -0.2)">
       <use xlink:href="#DejaVuSans-8722"/>
       <use x="83.789062" xlink:href="#DejaVuSans-48"/>
       <use x="147.412109" xlink:href="#DejaVuSans-46"/>
       <use x="179.199219" xlink:href="#DejaVuSans-52"/>
      </g>
     </g>
    </g>
    <g id="ytick_4">
     <g id="line2d_9">
      <g>
       <use style="fill:#555555;stroke:#555555;stroke-width:0.8;" x="99" xlink:href="#m493efb4b6f" y="298.679055"/>
      </g>
     </g>
     <g id="text_10">
      <!-- −0.2 -->
      <g style="fill:#555555;" transform="translate(44.434375 306.277493)scale(0.2 -0.2)">
       <use xlink:href="#DejaVuSans-8722"/>
       <use x="83.789062" xlink:href="#DejaVuSans-48"/>
       <use x="147.412109" xlink:href="#DejaVuSans-46"/>
       <use x="179.199219" xlink:href="#DejaVuSans-50"/>
      </g>
     </g>
    </g>
    <g id="ytick_5">
     <g id="line2d_10">
      <g>
       <use style="fill:#555555;stroke:#555555;stroke-width:0.8;" x="99" xlink:href="#m493efb4b6f" y="229.485189"/>
      </g>
     </g>
     <g id="text_11">
      <!-- 0.0 -->
      <g style="fill:#555555;" transform="translate(61.19375 237.083626)scale(0.2 -0.2)">
       <use xlink:href="#DejaVuSans-48"/>
       <use x="63.623047" xlink:href="#DejaVuSans-46"/>
       <use x="95.410156" xlink:href="#DejaVuSans-48"/>
      </g>
     </g>
    </g>
    <g id="ytick_6">
     <g id="line2d_11">
      <g>
       <use style="fill:#555555;stroke:#555555;stroke-width:0.8;" x="99" xlink:href="#m493efb4b6f" y="160.291322"/>
      </g>
     </g>
     <g id="text_12">
      <!-- 0.2 -->
      <g style="fill:#555555;" transform="translate(61.19375 167.88976)scale(0.2 -0.2)">
       <use xlink:href="#DejaVuSans-48"/>
       <use x="63.623047" xlink:href="#DejaVuSans-46"/>
       <use x="95.410156" xlink:href="#DejaVuSans-50"/>
      </g>
     </g>
    </g>
    <g id="ytick_7">
     <g id="line2d_12">
      <g>
       <use style="fill:#555555;stroke:#555555;stroke-width:0.8;" x="99" xlink:href="#m493efb4b6f" y="91.097455"/>
      </g>
     </g>
     <g id="text_13">
      <!-- 0.4 -->
      <g style="fill:#555555;" transform="translate(61.19375 98.695893)scale(0.2 -0.2)">
       <use xlink:href="#DejaVuSans-48"/>
       <use x="63.623047" xlink:href="#DejaVuSans-46"/>
       <use x="95.410156" xlink:href="#DejaVuSans-52"/>
      </g>
     </g>
    </g>
    <g id="text_14">
     <!-- energy [eV] -->
     <defs>
      <path d="M 56.203125 29.59375 
L 56.203125 25.203125 
L 14.890625 25.203125 
Q 15.484375 15.921875 20.484375 11.0625 
Q 25.484375 6.203125 34.421875 6.203125 
Q 39.59375 6.203125 44.453125 7.46875 
Q 49.3125 8.734375 54.109375 11.28125 
L 54.109375 2.78125 
Q 49.265625 0.734375 44.1875 -0.34375 
Q 39.109375 -1.421875 33.890625 -1.421875 
Q 20.796875 -1.421875 13.15625 6.1875 
Q 5.515625 13.8125 5.515625 26.8125 
Q 5.515625 40.234375 12.765625 48.109375 
Q 20.015625 56 32.328125 56 
Q 43.359375 56 49.78125 48.890625 
Q 56.203125 41.796875 56.203125 29.59375 
z
M 47.21875 32.234375 
Q 47.125 39.59375 43.09375 43.984375 
Q 39.0625 48.390625 32.421875 48.390625 
Q 24.90625 48.390625 20.390625 44.140625 
Q 15.875 39.890625 15.1875 32.171875 
z
" id="DejaVuSans-101"/>
      <path d="M 54.890625 33.015625 
L 54.890625 0 
L 45.90625 0 
L 45.90625 32.71875 
Q 45.90625 40.484375 42.875 44.328125 
Q 39.84375 48.1875 33.796875 48.1875 
Q 26.515625 48.1875 22.3125 43.546875 
Q 18.109375 38.921875 18.109375 30.90625 
L 18.109375 0 
L 9.078125 0 
L 9.078125 54.6875 
L 18.109375 54.6875 
L 18.109375 46.1875 
Q 21.34375 51.125 25.703125 53.5625 
Q 30.078125 56 35.796875 56 
Q 45.21875 56 50.046875 50.171875 
Q 54.890625 44.34375 54.890625 33.015625 
z
" id="DejaVuSans-110"/>
      <path d="M 41.109375 46.296875 
Q 39.59375 47.171875 37.8125 47.578125 
Q 36.03125 48 33.890625 48 
Q 26.265625 48 22.1875 43.046875 
Q 18.109375 38.09375 18.109375 28.8125 
L 18.109375 0 
L 9.078125 0 
L 9.078125 54.6875 
L 18.109375 54.6875 
L 18.109375 46.1875 
Q 20.953125 51.171875 25.484375 53.578125 
Q 30.03125 56 36.53125 56 
Q 37.453125 56 38.578125 55.875 
Q 39.703125 55.765625 41.0625 55.515625 
z
" id="DejaVuSans-114"/>
      <path d="M 45.40625 27.984375 
Q 45.40625 37.75 41.375 43.109375 
Q 37.359375 48.484375 30.078125 48.484375 
Q 22.859375 48.484375 18.828125 43.109375 
Q 14.796875 37.75 14.796875 27.984375 
Q 14.796875 18.265625 18.828125 12.890625 
Q 22.859375 7.515625 30.078125 7.515625 
Q 37.359375 7.515625 41.375 12.890625 
Q 45.40625 18.265625 45.40625 27.984375 
z
M 54.390625 6.78125 
Q 54.390625 -7.171875 48.1875 -13.984375 
Q 42 -20.796875 29.203125 -20.796875 
Q 24.46875 -20.796875 20.265625 -20.09375 
Q 16.0625 -19.390625 12.109375 -17.921875 
L 12.109375 -9.1875 
Q 16.0625 -11.328125 19.921875 -12.34375 
Q 23.78125 -13.375 27.78125 -13.375 
Q 36.625 -13.375 41.015625 -8.765625 
Q 45.40625 -4.15625 45.40625 5.171875 
L 45.40625 9.625 
Q 42.625 4.78125 38.28125 2.390625 
Q 33.9375 0 27.875 0 
Q 17.828125 0 11.671875 7.65625 
Q 5.515625 15.328125 5.515625 27.984375 
Q 5.515625 40.671875 11.671875 48.328125 
Q 17.828125 56 27.875 56 
Q 33.9375 56 38.28125 53.609375 
Q 42.625 51.21875 45.40625 46.390625 
L 45.40625 54.6875 
L 54.390625 54.6875 
z
" id="DejaVuSans-103"/>
      <path d="M 32.171875 -5.078125 
Q 28.375 -14.84375 24.75 -17.8125 
Q 21.140625 -20.796875 15.09375 -20.796875 
L 7.90625 -20.796875 
L 7.90625 -13.28125 
L 13.1875 -13.28125 
Q 16.890625 -13.28125 18.9375 -11.515625 
Q 21 -9.765625 23.484375 -3.21875 
L 25.09375 0.875 
L 2.984375 54.6875 
L 12.5 54.6875 
L 29.59375 11.921875 
L 46.6875 54.6875 
L 56.203125 54.6875 
z
" id="DejaVuSans-121"/>
      <path d="M 28.609375 0 
L 0.78125 72.90625 
L 11.078125 72.90625 
L 34.1875 11.53125 
L 57.328125 72.90625 
L 67.578125 72.90625 
L 39.796875 0 
z
" id="DejaVuSans-86"/>
     </defs>
     <g style="fill:#555555;" transform="translate(35.443125 361.674375)rotate(-90)scale(0.24 -0.24)">
      <use xlink:href="#DejaVuSans-101"/>
      <use x="61.523438" xlink:href="#DejaVuSans-110"/>
      <use x="124.902344" xlink:href="#DejaVuSans-101"/>
      <use x="186.425781" xlink:href="#DejaVuSans-114"/>
      <use x="227.523438" xlink:href="#DejaVuSans-103"/>
      <use x="291" xlink:href="#DejaVuSans-121"/>
      <use x="350.179688" xlink:href="#DejaVuSans-32"/>
      <use x="381.966797" xlink:href="#DejaVuSans-91"/>
      <use x="420.980469" xlink:href="#DejaVuSans-101"/>
      <use x="482.503906" xlink:href="#DejaVuSans-86"/>
      <use x="550.912109" xlink:href="#DejaVuSans-93"/>
     </g>
    </g>
   </g>
   <g id="line2d_13">
    <defs>
     <path d="M 0 4.5 
C 1.193414 4.5 2.338109 4.025852 3.181981 3.181981 
C 4.025852 2.338109 4.5 1.193414 4.5 0 
C 4.5 -1.193414 4.025852 -2.338109 3.181981 -3.181981 
C 2.338109 -4.025852 1.193414 -4.5 0 -4.5 
C -1.193414 -4.5 -2.338109 -4.025852 -3.181981 -3.181981 
C -4.025852 -2.338109 -4.5 -1.193414 -4.5 0 
C -4.5 1.193414 -4.025852 2.338109 -3.181981 3.181981 
C -2.338109 4.025852 -1.193414 4.5 0 4.5 
z
" id="m308eaa76ed" style="stroke:#1f77b4;"/>
    </defs>
    <g clip-path="url(#p209cd894cd)">
     <use style="fill:#1f77b4;stroke:#1f77b4;" x="135.70159" xlink:href="#m308eaa76ed" y="229.485189"/>
     <use style="fill:#1f77b4;stroke:#1f77b4;" x="153.30477" xlink:href="#m308eaa76ed" y="221.350212"/>
     <use style="fill:#1f77b4;stroke:#1f77b4;" x="171.144524" xlink:href="#m308eaa76ed" y="198.506768"/>
     <use style="fill:#1f77b4;stroke:#1f77b4;" x="189.723849" xlink:href="#m308eaa76ed" y="168.603911"/>
     <use style="fill:#1f77b4;stroke:#1f77b4;" x="210.059255" xlink:href="#m308eaa76ed" y="135.797675"/>
     <use style="fill:#1f77b4;stroke:#1f77b4;" x="231.935627" xlink:href="#m308eaa76ed" y="90.662314"/>
     <use style="fill:#1f77b4;stroke:#1f77b4;" x="268.66711" xlink:href="#m308eaa76ed" y="136.475319"/>
     <use style="fill:#1f77b4;stroke:#1f77b4;" x="304.379628" xlink:href="#m308eaa76ed" y="199.345902"/>
     <use style="fill:#1f77b4;stroke:#1f77b4;" x="340.128991" xlink:href="#m308eaa76ed" y="243.222159"/>
     <use style="fill:#1f77b4;stroke:#1f77b4;" x="373.702575" xlink:href="#m308eaa76ed" y="247.566856"/>
     <use style="fill:#1f77b4;stroke:#1f77b4;" x="406.29727" xlink:href="#m308eaa76ed" y="246.277881"/>
     <use style="fill:#1f77b4;stroke:#1f77b4;" x="435.898805" xlink:href="#m308eaa76ed" y="236.239954"/>
     <use style="fill:#1f77b4;stroke:#1f77b4;" x="461.503812" xlink:href="#m308eaa76ed" y="239.931038"/>
     <use style="fill:#1f77b4;stroke:#1f77b4;" x="483.823764" xlink:href="#m308eaa76ed" y="253.013472"/>
     <use style="fill:#1f77b4;stroke:#1f77b4;" x="503.183698" xlink:href="#m308eaa76ed" y="273.101054"/>
     <use style="fill:#1f77b4;stroke:#1f77b4;" x="520.791559" xlink:href="#m308eaa76ed" y="288.569283"/>
     <use style="fill:#1f77b4;stroke:#1f77b4;" x="537.922294" xlink:href="#m308eaa76ed" y="313.740482"/>
     <use style="fill:#1f77b4;stroke:#1f77b4;" x="555.223502" xlink:href="#m308eaa76ed" y="335.415122"/>
     <use style="fill:#1f77b4;stroke:#1f77b4;" x="572.760634" xlink:href="#m308eaa76ed" y="364.520473"/>
     <use style="fill:#1f77b4;stroke:#1f77b4;" x="590.308686" xlink:href="#m308eaa76ed" y="401.786264"/>
     <use style="fill:#1f77b4;stroke:#1f77b4;" x="607.702195" xlink:href="#m308eaa76ed" y="435.210329"/>
     <use style="fill:#1f77b4;stroke:#1f77b4;" x="624.928475" xlink:href="#m308eaa76ed" y="459.352106"/>
     <use style="fill:#1f77b4;stroke:#1f77b4;" x="642.070972" xlink:href="#m308eaa76ed" y="477.912589"/>
     <use style="fill:#1f77b4;stroke:#1f77b4;" x="659.199502" xlink:href="#m308eaa76ed" y="484.506312"/>
     <use style="fill:#1f77b4;stroke:#1f77b4;" x="676.333167" xlink:href="#m308eaa76ed" y="491.937956"/>
    </g>
   </g>
   <g id="line2d_14">
    <path clip-path="url(#p209cd894cd)" d="M 126.9 229.110115 
L 135.70159 229.485189 
L 144.50318 229.860263 
" style="fill:none;stroke:#008000;stroke-linecap:square;stroke-width:2.5;"/>
   </g>
   <g id="line2d_15">
    <path clip-path="url(#p209cd894cd)" d="M 144.444036 239.887361 
L 153.30477 221.350212 
L 162.165503 202.813064 
" style="fill:none;stroke:#008000;stroke-linecap:square;stroke-width:2.5;"/>
   </g>
   <g id="line2d_16">
    <path clip-path="url(#p209cd894cd)" d="M 162.039754 211.565046 
L 171.144524 198.506768 
L 180.249294 185.44849 
" style="fill:none;stroke:#008000;stroke-linecap:square;stroke-width:2.5;"/>
   </g>
   <g id="line2d_17">
    <path clip-path="url(#p209cd894cd)" d="M 179.995166 181.028592 
L 189.723849 168.603911 
L 199.452531 156.17923 
" style="fill:none;stroke:#008000;stroke-linecap:square;stroke-width:2.5;"/>
   </g>
   <g id="line2d_18">
    <path clip-path="url(#p209cd894cd)" d="M 199.506311 166.682085 
L 210.059255 135.797675 
L 220.6122 104.913266 
" style="fill:none;stroke:#008000;stroke-linecap:square;stroke-width:2.5;"/>
   </g>
   <g id="line2d_19">
    <path clip-path="url(#p209cd894cd)" d="M 217.283664 92.044627 
L 231.935627 90.662314 
L 246.587591 89.28 
" style="fill:none;stroke:#008000;stroke-linecap:square;stroke-width:2.5;"/>
   </g>
   <g id="line2d_20">
    <path clip-path="url(#p209cd894cd)" d="M 250.556109 111.659808 
L 268.66711 136.475319 
L 286.77811 161.29083 
" style="fill:none;stroke:#008000;stroke-linecap:square;stroke-width:2.5;"/>
   </g>
   <g id="line2d_21">
    <path clip-path="url(#p209cd894cd)" d="M 286.514157 157.028414 
L 304.379628 199.345902 
L 322.245098 241.66339 
" style="fill:none;stroke:#008000;stroke-linecap:square;stroke-width:2.5;"/>
   </g>
   <g id="line2d_22">
    <path clip-path="url(#p209cd894cd)" d="M 322.798254 241.708886 
L 340.128991 243.222159 
L 357.459728 244.735432 
" style="fill:none;stroke:#008000;stroke-linecap:square;stroke-width:2.5;"/>
   </g>
   <g id="line2d_23">
    <path clip-path="url(#p209cd894cd)" d="M 357.160506 245.889035 
L 373.702575 247.566856 
L 390.244645 249.244677 
" style="fill:none;stroke:#008000;stroke-linecap:square;stroke-width:2.5;"/>
   </g>
   <g id="line2d_24">
    <path clip-path="url(#p209cd894cd)" d="M 390.748212 249.756305 
L 406.29727 246.277881 
L 421.846327 242.799457 
" style="fill:none;stroke:#008000;stroke-linecap:square;stroke-width:2.5;"/>
   </g>
   <g id="line2d_25">
    <path clip-path="url(#p209cd894cd)" d="M 422.09717 248.817842 
L 435.898805 236.239954 
L 449.700441 223.662067 
" style="fill:none;stroke:#008000;stroke-linecap:square;stroke-width:2.5;"/>
   </g>
   <g id="line2d_26">
    <path clip-path="url(#p209cd894cd)" d="M 449.522572 237.727636 
L 461.503812 239.931038 
L 473.485051 242.134441 
" style="fill:none;stroke:#008000;stroke-linecap:square;stroke-width:2.5;"/>
   </g>
   <g id="line2d_27">
    <path clip-path="url(#p209cd894cd)" d="M 473.403792 240.535612 
L 483.823764 253.013472 
L 494.243735 265.491332 
" style="fill:none;stroke:#008000;stroke-linecap:square;stroke-width:2.5;"/>
   </g>
   <g id="line2d_28">
    <path clip-path="url(#p209cd894cd)" d="M 493.941749 266.237211 
L 503.183698 273.101054 
L 512.425647 279.964897 
" style="fill:none;stroke:#008000;stroke-linecap:square;stroke-width:2.5;"/>
   </g>
   <g id="line2d_29">
    <path clip-path="url(#p209cd894cd)" d="M 512.10691 279.004242 
L 520.791559 288.569283 
L 529.476208 298.134324 
" style="fill:none;stroke:#008000;stroke-linecap:square;stroke-width:2.5;"/>
   </g>
   <g id="line2d_30">
    <path clip-path="url(#p209cd894cd)" d="M 529.314308 300.988683 
L 537.922294 313.740482 
L 546.530279 326.492281 
" style="fill:none;stroke:#008000;stroke-linecap:square;stroke-width:2.5;"/>
   </g>
   <g id="line2d_31">
    <path clip-path="url(#p209cd894cd)" d="M 546.513917 324.833717 
L 555.223502 335.415122 
L 563.933087 345.996528 
" style="fill:none;stroke:#008000;stroke-linecap:square;stroke-width:2.5;"/>
   </g>
   <g id="line2d_32">
    <path clip-path="url(#p209cd894cd)" d="M 563.989338 348.065598 
L 572.760634 364.520473 
L 581.531929 380.975348 
" style="fill:none;stroke:#008000;stroke-linecap:square;stroke-width:2.5;"/>
   </g>
   <g id="line2d_33">
    <path clip-path="url(#p209cd894cd)" d="M 581.573295 382.468668 
L 590.308686 401.786264 
L 599.044076 421.103859 
" style="fill:none;stroke:#008000;stroke-linecap:square;stroke-width:2.5;"/>
   </g>
   <g id="line2d_34">
    <path clip-path="url(#p209cd894cd)" d="M 599.047248 422.127444 
L 607.702195 435.210329 
L 616.357143 448.293214 
" style="fill:none;stroke:#008000;stroke-linecap:square;stroke-width:2.5;"/>
   </g>
   <g id="line2d_35">
    <path clip-path="url(#p209cd894cd)" d="M 616.336281 448.678113 
L 624.928475 459.352106 
L 633.520669 470.026099 
" style="fill:none;stroke:#008000;stroke-linecap:square;stroke-width:2.5;"/>
   </g>
   <g id="line2d_36">
    <path clip-path="url(#p209cd894cd)" d="M 633.503215 470.523175 
L 642.070972 477.912589 
L 650.638729 485.302004 
" style="fill:none;stroke:#008000;stroke-linecap:square;stroke-width:2.5;"/>
   </g>
   <g id="line2d_37">
    <path clip-path="url(#p209cd894cd)" d="M 650.633953 482.48106 
L 659.199502 484.506312 
L 667.765051 486.531564 
" style="fill:none;stroke:#008000;stroke-linecap:square;stroke-width:2.5;"/>
   </g>
   <g id="line2d_38">
    <path clip-path="url(#p209cd894cd)" d="M 667.766335 492.48 
L 676.333167 491.937956 
L 684.9 491.395911 
" style="fill:none;stroke:#008000;stroke-linecap:square;stroke-width:2.5;"/>
   </g>
   <g id="line2d_39">
    <path clip-path="url(#p209cd894cd)" d="M 135.70159 229.485189 
L 138.342067 229.776599 
L 141.862703 230.236424 
L 143.623021 230.229492 
L 145.383339 229.906211 
L 146.263498 229.588802 
L 147.143657 229.14774 
L 148.023816 228.568171 
L 148.903975 227.835239 
L 149.784134 226.934089 
L 150.664293 225.849867 
L 151.544452 224.567717 
L 152.424611 223.072784 
L 155.088745 217.917809 
L 156.872721 215.016067 
L 158.656696 212.54166 
L 160.440671 210.391262 
L 163.116635 207.547154 
L 167.576573 202.963224 
L 169.360549 200.882971 
L 171.144524 198.506768 
L 173.931423 194.256108 
L 177.647288 188.030568 
L 185.079017 175.363909 
L 187.865916 171.123337 
L 189.723849 168.603911 
L 192.77416 164.934559 
L 197.858011 159.029668 
L 199.891552 156.393692 
L 201.925093 153.422284 
L 203.958633 149.996212 
L 205.992174 145.996241 
L 208.025715 141.30314 
L 210.059255 135.797675 
L 216.622167 116.766974 
L 219.903623 108.118499 
L 222.09126 103.00643 
L 224.278897 98.58651 
L 225.372716 96.681448 
L 226.466534 95.003836 
L 227.560353 93.57181 
L 228.654171 92.403507 
L 229.74799 91.517065 
L 230.841809 90.930621 
L 231.935627 90.662314 
L 233.772201 90.718552 
L 235.608775 91.211421 
L 237.44535 92.10735 
L 239.281924 93.372768 
L 241.118498 94.974101 
L 242.955072 96.87778 
L 244.791646 99.050231 
L 246.62822 101.457884 
L 250.301368 106.844507 
L 253.974517 112.769074 
L 264.993961 131.084708 
L 268.66711 136.475319 
L 274.023987 143.980004 
L 279.380865 151.919252 
L 282.952117 157.531338 
L 286.523369 163.45331 
L 290.09462 169.731866 
L 293.665872 176.413704 
L 297.237124 183.545524 
L 300.808376 191.174024 
L 309.742032 211.12873 
L 313.316968 217.963175 
L 316.891905 223.981335 
L 318.679373 226.684397 
L 320.466841 229.183495 
L 322.254309 231.478665 
L 324.041778 233.569942 
L 325.829246 235.457362 
L 327.616714 237.140961 
L 329.404182 238.620774 
L 331.19165 239.896838 
L 332.979118 240.969187 
L 334.766587 241.837858 
L 336.554055 242.502887 
L 338.341523 242.964308 
L 341.80767 243.377857 
L 348.522387 244.153645 
L 360.273142 245.828591 
L 370.345217 247.19576 
L 376.962045 247.864175 
L 381.851249 248.172155 
L 386.740453 248.289198 
L 391.629657 248.186798 
L 396.518861 247.836449 
L 401.408066 247.209645 
L 406.29727 246.277881 
L 410.7375 245.466344 
L 419.617961 244.112373 
L 422.578114 243.443276 
L 425.538268 242.530062 
L 428.498421 241.291592 
L 431.458575 239.646729 
L 434.418728 237.514333 
L 437.179055 235.202553 
L 438.459306 234.410815 
L 439.739556 233.845233 
L 441.019806 233.486303 
L 442.300057 233.314517 
L 443.580307 233.31037 
L 444.860557 233.454356 
L 447.421058 234.108702 
L 449.981559 235.121508 
L 458.943311 239.236257 
L 461.503812 239.931038 
L 464.851805 240.659474 
L 468.199797 241.676375 
L 470.431793 242.561247 
L 472.663788 243.644344 
L 474.895783 244.953675 
L 477.127778 246.517245 
L 479.359774 248.363063 
L 481.591769 250.519136 
L 483.823764 253.013472 
L 490.599741 260.956524 
L 494.471728 265.183616 
L 497.375718 268.109081 
L 500.279708 270.765868 
L 503.183698 273.101054 
L 508.466056 277.142773 
L 512.868021 280.808028 
L 516.389594 284.038243 
L 519.911166 287.613095 
L 522.504633 290.573935 
L 525.074243 293.96594 
L 528.50039 299.015251 
L 540.517475 317.432855 
L 543.977717 321.963651 
L 548.303019 327.219309 
L 556.100359 336.509439 
L 558.730928 340.116478 
L 561.361498 344.146575 
L 564.868924 350.037947 
L 569.253207 357.964175 
L 575.392841 369.609908 
L 578.902452 376.79822 
L 584.166867 388.169434 
L 595.526739 413.00371 
L 599.00544 420.019815 
L 602.484142 426.549035 
L 605.093169 431.066034 
L 607.702195 435.210329 
L 614.592707 445.403502 
L 619.760591 452.632159 
L 624.067161 458.273246 
L 629.214099 464.553884 
L 633.499724 469.446234 
L 636.928223 473.071796 
L 640.356722 476.386986 
L 642.927398 478.617398 
L 644.640251 479.836707 
L 646.353105 480.830445 
L 648.065958 481.632426 
L 650.635237 482.549814 
L 653.204517 483.225937 
L 660.912869 485.052295 
L 662.626235 485.832436 
L 665.196285 487.285556 
L 670.336385 490.326969 
L 672.049751 491.119107 
L 673.763118 491.681449 
L 675.476484 491.942617 
L 676.333167 491.937956 
L 676.333167 491.937956 
" style="fill:none;stroke:#000000;stroke-linecap:square;stroke-width:2.5;"/>
   </g>
   <g id="patch_3">
    <path d="M 99 512.64 
L 99 69.12 
" style="fill:none;stroke:#000000;stroke-linecap:square;stroke-linejoin:miter;stroke-width:3;"/>
   </g>
   <g id="patch_4">
    <path d="M 712.8 512.64 
L 712.8 69.12 
" style="fill:none;stroke:#000000;stroke-linecap:square;stroke-linejoin:miter;stroke-width:3;"/>
   </g>
   <g id="patch_5">
    <path d="M 99 512.64 
L 712.8 512.64 
" style="fill:none;stroke:#000000;stroke-linecap:square;stroke-linejoin:miter;stroke-width:3;"/>
   </g>
   <g id="patch_6">
    <path d="M 99 69.12 
L 712.8 69.12 
" style="fill:none;stroke:#000000;stroke-linecap:square;stroke-linejoin:miter;stroke-width:3;"/>
   </g>
   <g id="text_15">
    <!-- $E_\mathrm{f} \approx$ 0.401 eV; $E_\mathrm{r} \approx$ 1.160 eV; $\Delta E$ = -0.759 eV -->
    <defs>
     <path d="M 16.890625 72.90625 
L 62.984375 72.90625 
L 61.375 64.59375 
L 25.09375 64.59375 
L 20.90625 43.015625 
L 55.71875 43.015625 
L 54.109375 34.71875 
L 19.28125 34.71875 
L 14.203125 8.296875 
L 51.3125 8.296875 
L 49.703125 0 
L 2.6875 0 
z
" id="DejaVuSans-Oblique-69"/>
     <path d="M 37.109375 75.984375 
L 37.109375 68.5 
L 28.515625 68.5 
Q 23.6875 68.5 21.796875 66.546875 
Q 19.921875 64.59375 19.921875 59.515625 
L 19.921875 54.6875 
L 34.71875 54.6875 
L 34.71875 47.703125 
L 19.921875 47.703125 
L 19.921875 0 
L 10.890625 0 
L 10.890625 47.703125 
L 2.296875 47.703125 
L 2.296875 54.6875 
L 10.890625 54.6875 
L 10.890625 58.5 
Q 10.890625 67.625 15.140625 71.796875 
Q 19.390625 75.984375 28.609375 75.984375 
z
" id="DejaVuSans-102"/>
     <path d="M 73.1875 30.421875 
L 73.1875 21.6875 
Q 68.0625 17.875 63.6875 16.1875 
Q 59.328125 14.5 54.59375 14.5 
Q 49.21875 14.5 42.09375 17.390625 
Q 41.609375 17.578125 41.265625 17.71875 
Q 40.96875 17.828125 40.234375 18.109375 
Q 32.671875 21.09375 28.078125 21.09375 
Q 23.78125 21.09375 19.578125 19.234375 
Q 15.375 17.390625 10.59375 13.28125 
L 10.59375 22.015625 
Q 15.71875 25.828125 20.09375 27.515625 
Q 24.46875 29.203125 29.203125 29.203125 
Q 34.578125 29.203125 41.75 26.3125 
Q 42.28125 26.078125 42.53125 25.984375 
Q 42.828125 25.875 43.5625 25.59375 
Q 51.125 22.609375 55.71875 22.609375 
Q 59.90625 22.609375 64.03125 24.4375 
Q 68.171875 26.265625 73.1875 30.421875 
z
M 73.1875 49.421875 
L 73.1875 40.71875 
Q 68.0625 36.859375 63.6875 35.171875 
Q 59.328125 33.5 54.59375 33.5 
Q 49.21875 33.5 42.09375 36.375 
Q 41.609375 36.578125 41.265625 36.71875 
Q 40.96875 36.8125 40.234375 37.109375 
Q 32.671875 40.09375 28.078125 40.09375 
Q 23.78125 40.09375 19.578125 38.234375 
Q 15.375 36.375 10.59375 32.328125 
L 10.59375 41.015625 
Q 15.71875 44.828125 20.09375 46.5 
Q 24.46875 48.1875 29.203125 48.1875 
Q 34.578125 48.1875 41.75 45.3125 
Q 42.234375 45.125 42.484375 45.015625 
Q 42.828125 44.875 43.5625 44.578125 
Q 51.125 41.609375 55.71875 41.609375 
Q 59.90625 41.609375 64.03125 43.4375 
Q 68.171875 45.265625 73.1875 49.421875 
z
" id="DejaVuSans-8776"/>
     <path d="M 12.40625 8.296875 
L 28.515625 8.296875 
L 28.515625 63.921875 
L 10.984375 60.40625 
L 10.984375 69.390625 
L 28.421875 72.90625 
L 38.28125 72.90625 
L 38.28125 8.296875 
L 54.390625 8.296875 
L 54.390625 0 
L 12.40625 0 
z
" id="DejaVuSans-49"/>
     <path d="M 11.71875 51.703125 
L 22.015625 51.703125 
L 22.015625 39.3125 
L 11.71875 39.3125 
z
M 11.71875 12.40625 
L 22.015625 12.40625 
L 22.015625 4 
L 14.015625 -11.625 
L 7.71875 -11.625 
L 11.71875 4 
z
" id="DejaVuSans-59"/>
     <path d="M 34.1875 63.1875 
L 14.15625 8.203125 
L 54.25 8.203125 
z
M 0.78125 0 
L 28.609375 72.90625 
L 39.796875 72.90625 
L 67.578125 0 
z
" id="DejaVuSans-916"/>
     <path d="M 10.59375 45.40625 
L 73.1875 45.40625 
L 73.1875 37.203125 
L 10.59375 37.203125 
z
M 10.59375 25.484375 
L 73.1875 25.484375 
L 73.1875 17.1875 
L 10.59375 17.1875 
z
" id="DejaVuSans-61"/>
     <path d="M 4.890625 31.390625 
L 31.203125 31.390625 
L 31.203125 23.390625 
L 4.890625 23.390625 
z
" id="DejaVuSans-45"/>
     <path d="M 8.203125 72.90625 
L 55.078125 72.90625 
L 55.078125 68.703125 
L 28.609375 0 
L 18.3125 0 
L 43.21875 64.59375 
L 8.203125 64.59375 
z
" id="DejaVuSans-55"/>
     <path d="M 10.796875 72.90625 
L 49.515625 72.90625 
L 49.515625 64.59375 
L 19.828125 64.59375 
L 19.828125 46.734375 
Q 21.96875 47.46875 24.109375 47.828125 
Q 26.265625 48.1875 28.421875 48.1875 
Q 40.625 48.1875 47.75 41.5 
Q 54.890625 34.8125 54.890625 23.390625 
Q 54.890625 11.625 47.5625 5.09375 
Q 40.234375 -1.421875 26.90625 -1.421875 
Q 22.3125 -1.421875 17.546875 -0.640625 
Q 12.796875 0.140625 7.71875 1.703125 
L 7.71875 11.625 
Q 12.109375 9.234375 16.796875 8.0625 
Q 21.484375 6.890625 26.703125 6.890625 
Q 35.15625 6.890625 40.078125 11.328125 
Q 45.015625 15.765625 45.015625 23.390625 
Q 45.015625 31 40.078125 35.4375 
Q 35.15625 39.890625 26.703125 39.890625 
Q 22.75 39.890625 18.8125 39.015625 
Q 14.890625 38.140625 10.796875 36.28125 
z
" id="DejaVuSans-53"/>
     <path d="M 10.984375 1.515625 
L 10.984375 10.5 
Q 14.703125 8.734375 18.5 7.8125 
Q 22.3125 6.890625 25.984375 6.890625 
Q 35.75 6.890625 40.890625 13.453125 
Q 46.046875 20.015625 46.78125 33.40625 
Q 43.953125 29.203125 39.59375 26.953125 
Q 35.25 24.703125 29.984375 24.703125 
Q 19.046875 24.703125 12.671875 31.3125 
Q 6.296875 37.9375 6.296875 49.421875 
Q 6.296875 60.640625 12.9375 67.421875 
Q 19.578125 74.21875 30.609375 74.21875 
Q 43.265625 74.21875 49.921875 64.515625 
Q 56.59375 54.828125 56.59375 36.375 
Q 56.59375 19.140625 48.40625 8.859375 
Q 40.234375 -1.421875 26.421875 -1.421875 
Q 22.703125 -1.421875 18.890625 -0.6875 
Q 15.09375 0.046875 10.984375 1.515625 
z
M 30.609375 32.421875 
Q 37.25 32.421875 41.125 36.953125 
Q 45.015625 41.5 45.015625 49.421875 
Q 45.015625 57.28125 41.125 61.84375 
Q 37.25 66.40625 30.609375 66.40625 
Q 23.96875 66.40625 20.09375 61.84375 
Q 16.21875 57.28125 16.21875 49.421875 
Q 16.21875 41.5 20.09375 36.953125 
Q 23.96875 32.421875 30.609375 32.421875 
z
" id="DejaVuSans-57"/>
    </defs>
    <g transform="translate(131.7 63.12)scale(0.24 -0.24)">
     <use transform="translate(0 0.78125)" xlink:href="#DejaVuSans-Oblique-69"/>
     <use transform="translate(63.183594 -15.625)scale(0.7)" xlink:href="#DejaVuSans-102"/>
     <use transform="translate(110.043945 0.78125)" xlink:href="#DejaVuSans-8776"/>
     <use transform="translate(213.31543 0.78125)" xlink:href="#DejaVuSans-32"/>
     <use transform="translate(245.102539 0.78125)" xlink:href="#DejaVuSans-48"/>
     <use transform="translate(308.725586 0.78125)" xlink:href="#DejaVuSans-46"/>
     <use transform="translate(340.512695 0.78125)" xlink:href="#DejaVuSans-52"/>
     <use transform="translate(404.135742 0.78125)" xlink:href="#DejaVuSans-48"/>
     <use transform="translate(467.758789 0.78125)" xlink:href="#DejaVuSans-49"/>
     <use transform="translate(531.381836 0.78125)" xlink:href="#DejaVuSans-32"/>
     <use transform="translate(563.168945 0.78125)" xlink:href="#DejaVuSans-101"/>
     <use transform="translate(624.692383 0.78125)" xlink:href="#DejaVuSans-86"/>
     <use transform="translate(693.100586 0.78125)" xlink:href="#DejaVuSans-59"/>
     <use transform="translate(726.791992 0.78125)" xlink:href="#DejaVuSans-32"/>
     <use transform="translate(758.579102 0.78125)" xlink:href="#DejaVuSans-Oblique-69"/>
     <use transform="translate(821.762695 -15.625)scale(0.7)" xlink:href="#DejaVuSans-114"/>
     <use transform="translate(872.758789 0.78125)" xlink:href="#DejaVuSans-8776"/>
     <use transform="translate(976.030273 0.78125)" xlink:href="#DejaVuSans-32"/>
     <use transform="translate(1007.817383 0.78125)" xlink:href="#DejaVuSans-49"/>
     <use transform="translate(1071.44043 0.78125)" xlink:href="#DejaVuSans-46"/>
     <use transform="translate(1103.227539 0.78125)" xlink:href="#DejaVuSans-49"/>
     <use transform="translate(1166.850586 0.78125)" xlink:href="#DejaVuSans-54"/>
     <use transform="translate(1230.473633 0.78125)" xlink:href="#DejaVuSans-48"/>
     <use transform="translate(1294.09668 0.78125)" xlink:href="#DejaVuSans-32"/>
     <use transform="translate(1325.883789 0.78125)" xlink:href="#DejaVuSans-101"/>
     <use transform="translate(1387.407227 0.78125)" xlink:href="#DejaVuSans-86"/>
     <use transform="translate(1455.81543 0.78125)" xlink:href="#DejaVuSans-59"/>
     <use transform="translate(1489.506836 0.78125)" xlink:href="#DejaVuSans-32"/>
     <use transform="translate(1521.293945 0.78125)" xlink:href="#DejaVuSans-916"/>
     <use transform="translate(1589.702148 0.78125)" xlink:href="#DejaVuSans-Oblique-69"/>
     <use transform="translate(1652.885742 0.78125)" xlink:href="#DejaVuSans-32"/>
     <use transform="translate(1684.672852 0.78125)" xlink:href="#DejaVuSans-61"/>
     <use transform="translate(1768.461914 0.78125)" xlink:href="#DejaVuSans-32"/>
     <use transform="translate(1800.249023 0.78125)" xlink:href="#DejaVuSans-45"/>
     <use transform="translate(1836.333008 0.78125)" xlink:href="#DejaVuSans-48"/>
     <use transform="translate(1899.956055 0.78125)" xlink:href="#DejaVuSans-46"/>
     <use transform="translate(1931.633789 0.78125)" xlink:href="#DejaVuSans-55"/>
     <use transform="translate(1995.256836 0.78125)" xlink:href="#DejaVuSans-53"/>
     <use transform="translate(2058.801758 0.78125)" xlink:href="#DejaVuSans-57"/>
     <use transform="translate(2122.424805 0.78125)" xlink:href="#DejaVuSans-32"/>
     <use transform="translate(2154.211914 0.78125)" xlink:href="#DejaVuSans-101"/>
     <use transform="translate(2215.735352 0.78125)" xlink:href="#DejaVuSans-86"/>
    </g>
   </g>
  </g>
 </g>
 <defs>
  <clipPath id="p209cd894cd">
   <rect height="443.52" width="613.8" x="99" y="69.12"/>
  </clipPath>
 </defs>
</svg>
